<?xml version="1.0" encoding="UTF-8"?>
<svg height="128px" viewBox="0 0 128 128" width="128px" xmlns="http://www.w3.org/2000/svg" xmlns:xlink="http://www.w3.org/1999/xlink">
    <style>
        @keyframes cursor-fade {
            0% {
                opacity: 1;
            }

            25% {
                opacity: 0;
            }


            50% {
                opacity: 1;
            }
        }

        #cursor {
            animation: cursor-fade 2s infinite;
            animation-timing-function: ease-in-out;
        }
    </style>
    <symbol id="a" overflow="visible">
        <path d="m 2.5625 -20 h 11.546875 v 2.28125 h -8.90625 v 5.921875 h 8.515625 v 2.265625 h -8.515625 v 7.25 h 9.15625 v 2.28125 h -11.796875 z m 0 0"/>
    </symbol>
    <symbol id="b" overflow="visible">
        <path d="m 3.3125 -2.28125 h 4.296875 v -15.25 l -4.671875 0.953125 v -2.453125 l 4.640625 -0.96875 h 2.625 v 17.71875 h 4.3125 v 2.28125 h -11.203125 z m 0 0"/>
    </symbol>
    <symbol id="c" overflow="visible">
        <path d="m 8.265625 -9.90625 v 1.578125 c -0.46875 -0.238281 -0.960937 -0.414063 -1.46875 -0.53125 c -0.511719 -0.125 -1.042969 -0.1875 -1.59375 -0.1875 c -0.835937 0 -1.460937 0.132813 -1.875 0.390625 c -0.417969 0.25 -0.625 0.632812 -0.625 1.140625 c 0 0.386719 0.144531 0.695313 0.4375 0.921875 c 0.300781 0.21875 0.90625 0.429688 1.8125 0.625 l 0.578125 0.125 c 1.1875 0.25 2.03125 0.609375 2.53125 1.078125 s 0.75 1.121094 0.75 1.953125 c 0 0.949219 -0.375 1.699219 -1.125 2.25 c -0.75 0.5546875 -1.78125 0.828125 -3.09375 0.828125 c -0.542969 0 -1.109375 -0.058594 -1.703125 -0.171875 c -0.59375 -0.1015625 -1.21875 -0.257812 -1.875 -0.46875 v -1.734375 c 0.613281 0.324219 1.222656 0.570313 1.828125 0.734375 c 0.601562 0.15625 1.195312 0.234375 1.78125 0.234375 c 0.789062 0 1.398438 -0.132813 1.828125 -0.40625 c 0.425781 -0.269531 0.640625 -0.648437 0.640625 -1.140625 c 0 -0.457031 -0.15625 -0.804688 -0.46875 -1.046875 c -0.304688 -0.25 -0.976562 -0.484375 -2.015625 -0.703125 l -0.578125 -0.140625 c -1.042969 -0.21875 -1.796875 -0.550781 -2.265625 -1 c -0.460937 -0.457031 -0.6875 -1.082031 -0.6875 -1.875 c 0 -0.957031 0.335937 -1.695313 1.015625 -2.21875 c 0.6875 -0.519531 1.65625 -0.78125 2.90625 -0.78125 c 0.625 0 1.207031 0.046875 1.75 0.140625 c 0.550781 0.085938 1.054688 0.21875 1.515625 0.40625 z m 0 0"/>
    </symbol>
    <symbol id="d" overflow="visible">
        <path d="m 9.09375 -5.09375 c 0 -1.238281 -0.257812 -2.207031 -0.765625 -2.90625 c -0.511719 -0.695312 -1.210937 -1.046875 -2.09375 -1.046875 c -0.886719 0 -1.585937 0.351563 -2.09375 1.046875 c -0.511719 0.699219 -0.765625 1.667969 -0.765625 2.90625 c 0 1.230469 0.253906 2.199219 0.765625 2.90625 c 0.507813 0.699219 1.207031 1.046875 2.09375 1.046875 c 0.882813 0 1.582031 -0.347656 2.09375 -1.046875 c 0.507813 -0.707031 0.765625 -1.675781 0.765625 -2.90625 z m -5.71875 -3.5625 c 0.351562 -0.613281 0.800781 -1.066406 1.34375 -1.359375 c 0.539062 -0.289063 1.179688 -0.4375 1.921875 -0.4375 c 1.238281 0 2.242187 0.496094 3.015625 1.484375 c 0.78125 0.980469 1.171875 2.273438 1.171875 3.875 c 0 1.605469 -0.390625 2.902344 -1.171875 3.890625 c -0.773438 0.980469 -1.777344 1.46875 -3.015625 1.46875 c -0.742187 0 -1.382813 -0.148437 -1.921875 -0.4375 c -0.542969 -0.300781 -0.992188 -0.753906 -1.34375 -1.359375 v 1.53125 h -1.671875 v -14.1875 h 1.671875 z m 0 0"/>
    </symbol>
    <symbol id="e" overflow="visible">
        <path d="m 5.71875 -9.03125 c -0.90625 0 -1.621094 0.355469 -2.140625 1.0625 c -0.523437 0.699219 -0.78125 1.65625 -0.78125 2.875 s 0.257813 2.183594 0.78125 2.890625 c 0.519531 0.699219 1.234375 1.046875 2.140625 1.046875 c 0.894531 0 1.601562 -0.347656 2.125 -1.046875 c 0.519531 -0.707031 0.78125 -1.671875 0.78125 -2.890625 c 0 -1.207031 -0.261719 -2.164062 -0.78125 -2.875 c -0.523438 -0.707031 -1.230469 -1.0625 -2.125 -1.0625 z m 0 -1.421875 c 1.457031 0 2.601562 0.476563 3.4375 1.421875 c 0.832031 0.949219 1.25 2.261719 1.25 3.9375 c 0 1.667969 -0.417969 2.980469 -1.25 3.9375 c -0.835938 0.949219 -1.980469 1.421875 -3.4375 1.421875 c -1.46875 0 -2.621094 -0.472656 -3.453125 -1.421875 c -0.824219 -0.957031 -1.234375 -2.269531 -1.234375 -3.9375 c 0 -1.675781 0.410156 -2.988281 1.234375 -3.9375 c 0.832031 -0.945312 1.984375 -1.421875 3.453125 -1.421875 z m 0 0"/>
    </symbol>
    <symbol id="f" overflow="visible">
        <path d="m 10.25 -6.15625 v 6.15625 h -1.6875 v -6.109375 c 0 -0.96875 -0.1875 -1.691406 -0.5625 -2.171875 c -0.375 -0.476562 -0.9375 -0.71875 -1.6875 -0.71875 c -0.90625 0 -1.625 0.292969 -2.15625 0.875 c -0.523438 0.574219 -0.78125 1.359375 -0.78125 2.359375 v 5.765625 h -1.671875 v -10.21875 h 1.671875 v 1.59375 c 0.40625 -0.613281 0.878906 -1.070312 1.421875 -1.375 c 0.539063 -0.300781 1.171875 -0.453125 1.890625 -0.453125 c 1.164062 0 2.050781 0.367187 2.65625 1.09375 c 0.601562 0.71875 0.90625 1.789063 0.90625 3.203125 z m 0 0"/>
    </symbol>
    <symbol id="g" overflow="visible">
        <path d="m 1.765625 -10.21875 h 1.671875 v 10.21875 h -1.671875 z m 0 -3.96875 h 1.671875 v 2.125 h -1.671875 z m 0 0"/>
    </symbol>
    <symbol id="h" overflow="visible">
        <path d="m 10.25 -10.21875 l -3.6875 4.96875 l 3.875 5.25 h -1.984375 l -2.96875 -4.015625 l -2.96875 4.015625 h -1.984375 l 3.96875 -5.34375 l -3.625 -4.875 h 1.984375 l 2.703125 3.640625 l 2.703125 -3.640625 z m 0 0"/>
    </symbol>
    <symbol id="i" overflow="visible">
        <path d="m 3.375 -1.53125 v 5.421875 h -1.671875 v -14.109375 h 1.671875 v 1.5625 c 0.351562 -0.613281 0.800781 -1.066406 1.34375 -1.359375 c 0.539062 -0.289063 1.179688 -0.4375 1.921875 -0.4375 c 1.238281 0 2.242187 0.496094 3.015625 1.484375 c 0.78125 0.980469 1.171875 2.273438 1.171875 3.875 c 0 1.605469 -0.390625 2.902344 -1.171875 3.890625 c -0.773438 0.980469 -1.777344 1.46875 -3.015625 1.46875 c -0.742187 0 -1.382813 -0.148437 -1.921875 -0.4375 c -0.542969 -0.300781 -0.992188 -0.753906 -1.34375 -1.359375 z m 5.71875 -3.5625 c 0 -1.238281 -0.257812 -2.207031 -0.765625 -2.90625 c -0.511719 -0.695312 -1.210937 -1.046875 -2.09375 -1.046875 c -0.886719 0 -1.585937 0.351563 -2.09375 1.046875 c -0.511719 0.699219 -0.765625 1.667969 -0.765625 2.90625 c 0 1.230469 0.253906 2.199219 0.765625 2.90625 c 0.507813 0.699219 1.207031 1.046875 2.09375 1.046875 c 0.882813 0 1.582031 -0.347656 2.09375 -1.046875 c 0.507813 -0.707031 0.765625 -1.675781 0.765625 -2.90625 z m 0 0"/>
    </symbol>
    <symbol id="j" overflow="visible">
        <path d="m 1.765625 -14.1875 h 1.671875 v 14.1875 h -1.671875 z m 0 0"/>
    </symbol>
    <symbol id="k" overflow="visible">
        <path d="m 6.40625 -5.140625 c -1.367188 0 -2.308594 0.15625 -2.828125 0.46875 c -0.523437 0.3125 -0.78125 0.84375 -0.78125 1.59375 c 0 0.59375 0.191406 1.070313 0.578125 1.421875 c 0.394531 0.34375 0.929688 0.515625 1.609375 0.515625 c 0.925781 0 1.671875 -0.328125 2.234375 -0.984375 c 0.5625 -0.664062 0.84375 -1.546875 0.84375 -2.640625 v -0.375 z m 3.34375 -0.6875 v 5.828125 h -1.6875 v -1.546875 c -0.375 0.617187 -0.851562 1.074219 -1.421875 1.375 c -0.574219 0.289063 -1.273437 0.4375 -2.09375 0.4375 c -1.054687 0 -1.886719 -0.2890625 -2.5 -0.875 c -0.617187 -0.59375 -0.921875 -1.378906 -0.921875 -2.359375 c 0 -1.15625 0.378906 -2.023438 1.140625 -2.609375 c 0.769531 -0.582031 1.921875 -0.875 3.453125 -0.875 h 2.34375 v -0.15625 c 0 -0.769531 -0.257812 -1.363281 -0.765625 -1.78125 c -0.5 -0.425781 -1.210937 -0.640625 -2.125 -0.640625 c -0.585937 0 -1.152344 0.074219 -1.703125 0.21875 c -0.554688 0.136719 -1.085938 0.339844 -1.59375 0.609375 v -1.546875 c 0.613281 -0.238281 1.207031 -0.414062 1.78125 -0.53125 c 0.570312 -0.113281 1.132812 -0.171875 1.6875 -0.171875 c 1.476562 0 2.582031 0.386719 3.3125 1.15625 c 0.726562 0.761719 1.09375 1.917969 1.09375 3.46875 z m 0 0"/>
    </symbol>
    <path d="m 8.234375 9.167969 h 77.191406 c 2.710938 0 4.910157 2.199219 4.910157 4.910156 v 97.191406 c 0 2.710938 -2.199219 4.910157 -4.910157 4.910157 h -77.191406 c -2.710937 0 -4.90625 -2.199219 -4.90625 -4.910157 v -97.191406 c 0 -2.710937 2.195313 -4.910156 4.90625 -4.910156 z m 0 0" fill="#bbbbbb" fill-rule="evenodd"/>
    <path d="m 8.234375 5.726563 h 77.191406 c 2.710937 0 4.910156 2.199219 4.910156 4.910156 v 97.191406 c 0 2.710938 -2.199219 4.910157 -4.910156 4.910157 h -77.191406 c -2.710938 0 -4.90625 -2.199219 -4.90625 -4.910157 v -97.191406 c 0 -2.710937 2.195312 -4.910156 4.90625 -4.910156 z m 0 0" fill="#ffffff" fill-rule="evenodd" stroke="#222222" stroke-width="0.4"/>
    <path d="m 8.234375 5.730469 c -2.71875 0 -4.90625 2.1875 -4.90625 4.90625 v 97.191406 c 0 2.71875 2.1875 4.910157 4.90625 4.910157 h 13.550781 v -107.007813 z m 0 0" fill="#dddddd" fill-rule="evenodd" stroke="#222222" stroke-width="0.4"/>
    <use fill="#fb0e81" x="21.085938" xlink:href="#a" y="37.84041"/>
    <use fill="#888888" x="3.785156" xlink:href="#b" y="37.832598"/>
    <path id="cursor" d="m 37.675781 17.390625 h 10.8125 v 20.449219 h -10.8125 z m 0 0" fill="#aaaaaa"/>
    <path d="m 37.675781 39.109375 h 87.28125 v 51.210937 h -87.28125 z m 0 0" fill="#bbbbbb"/>
    <path d="m 37.664062 40.589844 h 52.671876 v 50.421875 h -52.671876 z m 0 0" fill="#bbbbbb"/>
    <path d="m 38.160157 39.609375 h 86.300781 v 47.367187 h -86.300781 z m 0 0" fill="#dddddd" stroke="#222222" stroke-linejoin="round" stroke-width="0.5"/>
    <path d="m 39.359375 40.789062 h 83.800781 v 21.707032 h -83.800781 z m 0 0" fill="#ffffff"/>
    <g fill="#222222">
        <use x="59.179688" xlink:href="#c" y="57.670898"/>
        <use x="69.179688" xlink:href="#d" y="57.670898"/>
        <use x="81.179688" xlink:href="#e" y="57.670898"/>
        <use x="92.179688" xlink:href="#f" y="57.670898"/>
        <use x="104.179688" xlink:href="#g" y="57.670898"/>
        <use x="109.179688" xlink:href="#e" y="57.670898"/>
    </g>
    <g fill="#222222">
        <use x="59.179688" xlink:href="#h" y="79.135742"/>
        <use x="70.179688" xlink:href="#i" y="79.135742"/>
        <use x="82.179688" xlink:href="#j" y="79.135742"/>
        <use x="87.179688" xlink:href="#k" y="79.135742"/>
        <use x="98.179688" xlink:href="#g" y="79.135742"/>
        <use x="103.179688" xlink:href="#f" y="79.135742"/>
    </g>
    <g fill="none" stroke="#fb0e81" stroke-linejoin="round" stroke-width="1.1">
        <path d="m 42.851563 47.839843 l 6.265625 3.601563 l 6.21875 -3.578125 l -6.265625 -3.601563 z m 0 0"/>
        <path d="m 49.117188 51.441406 v 8.332031 l 6.21875 -3.578125 v -8.332031 z m 0 0"/>
        <path d="m 42.851563 47.839843 l 6.265625 3.601563 v 8.332031 l -6.265625 -3.601562 z m 0 0"/>
        <path d="m 43.007812 69.503907 l 6.265625 3.601562 l 6.21875 -3.574219 l -6.265625 -3.601562 z m 0 0"/>
        <path d="m 49.273437 73.105469 v 8.332031 l 6.21875 -3.574218 v -8.332032 z m 0 0"/>
        <path d="m 43.007812 69.503907 l 6.265625 3.601562 v 8.332031 l -6.265625 -3.601562 z m 0 0"/>
    </g>
</svg>
