<svg version="1.1" xmlns="http://www.w3.org/2000/svg" viewBox="0 0 1313.3000030517578 589" width="1313.3000030517578" height="589">
  <!-- svg-source:excalidraw -->
  
  <defs>
    <style class="style-fonts">
      @font-face {
        font-family: "Virgil";
        src: url("https://excalidraw.com/Virgil.woff2");
      }
      @font-face {
        font-family: "Cascadia";
        src: url("https://excalidraw.com/Cascadia.woff2");
      }
    </style>
    
  </defs>
  <rect x="0" y="0" width="1313.3000030517578" height="589" fill="#ffffff"></rect><g stroke-linecap="round" transform="translate(92.30000305175781 10) rotate(0 136.5 130.5)"><path d="M-0.05 0.45 C80.87 -0.55, 160.67 2.35, 271.76 -0.72 M0.59 0.39 C63.54 1.25, 128.08 1.1, 273.68 -0.37 M272.15 0.51 C272.86 79, 272.73 156.42, 271.46 262.07 M273.07 -0.79 C272.26 95.78, 271.79 190.66, 273.11 261.52 M272.72 260.39 C165.85 263.01, 60.75 262.09, -0.32 261.61 M273.67 261.24 C177.73 262.4, 83.04 262.48, -0.45 261.08 M-1.15 260.24 C0.68 194.91, 0.79 132.36, -1.38 0.04 M-0.42 260.64 C-0.17 157.45, -0.36 52.99, 0.35 -0.3" stroke="#1e1e1e" stroke-width="1" fill="none"></path></g><g stroke-linecap="round" transform="translate(171.3000030517578 11) rotate(0 95.5 18.5)"><path d="M0 0 C0 0, 0 0, 0 0 M0 0 C0 0, 0 0, 0 0 M-0.15 7.12 C1.38 4.24, 4.18 1.75, 5.71 0.74 M-0.46 6.2 C1.25 5.04, 2.83 3.38, 4.66 0.71 M-1.36 11.4 C2.48 8.49, 5.01 6.08, 9.23 -1.28 M-0.45 11.67 C3.82 8.05, 7.07 4.93, 10.63 0.51 M0.61 18.11 C6.18 14.96, 10.49 8.82, 16.33 -1.47 M-0.56 18.58 C3.92 13.29, 7.71 8.98, 16.16 -0.45 M0.7 23.1 C6.48 15.09, 12.8 9.71, 22.74 0.84 M0.01 24.92 C5.9 17.79, 12.47 10.21, 22.03 -0.28 M1.7 28.96 C4.79 25.38, 9.89 17.76, 25.48 -0.35 M-0.22 30.95 C9.99 20.15, 19.02 9.77, 25.83 0.44 M-1.41 36.84 C7.96 23.5, 21.49 12.01, 30.72 -0.4 M0.6 37.05 C8.58 28.03, 16.29 18.11, 32.35 0.4 M2.7 38.67 C12.19 29.02, 17.47 23.09, 38.06 0.83 M1.77 38.69 C15.29 25.61, 26.23 12.68, 36.94 0.61 M8.96 39.92 C15.2 31.11, 24.39 19.14, 41.52 -1.8 M8.08 39 C16.86 30.64, 24.89 21.11, 42.3 0.3 M12.97 39.31 C21.44 31.66, 29.26 24.96, 46.17 -1.55 M12.69 39.07 C21.61 31.75, 28.22 22.87, 47.88 -0.14 M20.08 39.65 C30.05 26.11, 40.7 12.99, 53.14 -0.62 M18.94 38.59 C29.66 28.13, 38.53 15.33, 52.69 0.69 M25.98 41.32 C32.09 29.24, 44.69 15.25, 56.21 -0.91 M24.77 40.08 C33.09 30.16, 39.84 21.13, 58.64 0.15 M27.09 40.24 C36.58 30.42, 45.5 18.77, 62.85 -0.91 M29.86 40.48 C35.6 30.84, 44.24 23.41, 63.43 -0.54 M34.4 39.26 C41.19 31.28, 47.11 23.47, 66.83 1.56 M35.27 39.33 C41.38 30.75, 48.29 22.4, 67.83 0.59 M41.34 41.64 C46.13 32.07, 56.37 22.1, 73.21 0.49 M40.06 39.94 C53.26 25.53, 65.65 10.72, 74.56 0.17 M44.16 38.94 C55.38 29.19, 63.01 16.1, 78.98 -1.1 M45.51 40.04 C53.49 30.2, 61.61 19.51, 79.64 0.42 M50.5 40.25 C58.81 31.13, 64.82 20.37, 86.06 -0.01 M50.41 40.67 C58.32 29.34, 67.81 19.26, 85.22 -1 M56.46 39.35 C61.72 29.64, 72.5 20.98, 89.9 0.35 M55.95 40.09 C68.19 24.37, 80.92 11.39, 90.91 0.01 M59.16 39.94 C71.68 24.07, 85.92 12.19, 96.52 1.17 M61.04 38.71 C73.67 23.81, 88.53 8.55, 96.66 -0.23 M65.81 38.74 C73.19 29.75, 84.33 19.28, 99.09 1.38 M67.15 38.98 C75.15 29.38, 85.24 17.91, 100.06 -0.12 M70.23 38.8 C84.06 26.6, 98.5 12, 106.98 0.87 M71.69 40.29 C78.89 31.22, 87.07 21.83, 107.23 -1.04 M77.97 40.56 C87.27 28.82, 94.6 20.74, 110.34 1.67 M76.79 38.88 C85.86 28.29, 95.16 19.25, 112.12 -0.31 M82.86 39.14 C93.74 30.21, 101.47 18.76, 116.48 -0.12 M82.71 38.76 C94.99 25.14, 108.58 10.83, 116.74 -0.59 M88.02 39.47 C95.35 29.65, 106.38 17.22, 121.74 -0.88 M88.64 39.58 C96.66 29.16, 105.2 21.27, 121.75 -0.74 M94.49 41.5 C103.02 26.41, 113.1 15.43, 125.29 1.97 M92.06 39.59 C100.38 31.6, 108.24 23.69, 126.09 0.37 M98.28 39.37 C108.06 30.77, 115.68 22.83, 131.62 -0.13 M97.59 39.51 C110.54 25.95, 122.56 12.79, 132.2 -0.49 M102.87 38.62 C113.36 30.07, 120.4 17.36, 137.01 0.36 M104.31 39.43 C114.05 28.16, 123.42 16.34, 138.31 0.99 M108.37 39.35 C123.22 23.6, 137.57 7.34, 144.63 0.24 M108.64 38.74 C120.12 27.01, 131.16 13.7, 142.33 -0.46 M116 41.46 C125.1 28.67, 134.56 17.14, 147.14 0.77 M113.64 39.04 C125.75 27.08, 136.64 13.47, 148.19 0.28 M121.2 39.75 C131.05 27.53, 140.73 14.55, 153.69 0.81 M119.9 40 C130.25 27.4, 140.06 15.81, 153.63 -0.43 M126.17 41.21 C132.57 32.39, 141.83 22.35, 160.51 0.09 M124.84 40.33 C138.04 24.42, 149.88 8.86, 158.63 0.93 M128.94 40.12 C138.53 27.84, 148.15 21.24, 165.98 0.34 M129.58 39.64 C138.69 27.3, 149.07 16.91, 165.17 -0.04 M135.95 39.28 C140.34 31.47, 148.96 21.4, 169.2 0.49 M136.3 39.36 C144.98 28.29, 155.36 17.04, 169.65 0.23 M138.41 37.96 C147.8 30.66, 152.98 23.26, 177 -2.16 M140.36 39.41 C147.6 31.38, 153.84 24.01, 174.66 0.21 M144.2 41.29 C159.73 25.85, 172.19 9, 178.57 -0.69 M145.02 39.32 C155.82 28.55, 165.13 17.54, 179.38 1.15 M151.67 39.75 C158.09 29.03, 166.12 22.39, 184.5 -1.47 M150.99 40.44 C162.2 27.75, 172.24 15.09, 185.39 -0.02 M156.06 39.07 C164.64 30.7, 174.43 19.12, 189.29 -0.88 M155.64 39.54 C166.94 27.14, 175.09 16.71, 191.04 -0.73 M160.07 39.45 C175.76 24.07, 186.69 11.75, 191.89 2.85 M161.35 38.76 C173.85 25.25, 185.14 12.33, 194.65 3.07 M168.93 40.69 C174.7 32.22, 179.7 23.89, 196.07 10.03 M167.37 38.49 C174.79 30.37, 180.3 22.35, 194.77 8.12 M172.93 41.47 C178.64 30.01, 187.94 24.71, 194.26 16.49 M172.11 39.3 C177.75 33.41, 184.36 27.12, 194.72 14.44 M178.52 40.43 C184.58 35.3, 187.03 28.96, 196.05 18.52 M177.04 38.8 C182.37 33.18, 187.38 29, 194.95 21.04 M182.84 39.49 C186.95 35.58, 191.63 31.41, 192.35 26.37 M182.98 39.62 C187.3 34.5, 191.13 29.65, 193.66 27.06 M188.6 39.88 C189.93 38.16, 191.36 35.71, 193.97 32.66 M188.32 39.65 C189.99 38.09, 190.88 36.9, 193.33 32.96 M-0.21 36.82 C-0.21 36.82, -0.21 36.82, -0.21 36.82 M-0.21 36.82 C-0.21 36.82, -0.21 36.82, -0.21 36.82 M5.78 36.77 C4.81 35.18, 2.64 35.09, 0.25 31.25 M6.4 36.83 C4.72 35.9, 2.39 33.6, -0.11 31.83 M12.22 36.98 C7.93 34.92, 4.23 31.55, -0.54 26.16 M11.69 36.2 C7.24 33.54, 4.23 29.71, -0.94 25.68 M17.31 36.17 C11.41 31.6, 2.61 24.37, -0.25 21.87 M17.73 36.82 C13.58 32.96, 6.67 28.07, -0.48 21.63 M25.88 35.51 C19.18 30.78, 12.89 28.7, -0.18 17.14 M23.87 37.03 C16.14 30.09, 7.9 21.57, -0.08 16.24 M31.79 37.44 C23.41 30.22, 14.36 22.81, 1.27 11.42 M30.13 36.38 C19.12 28.21, 7.69 19.3, 0.16 9.64 M34.9 36.01 C26.21 30.28, 21.1 23.41, 0.92 5.93 M37.63 37.74 C25.91 28.63, 16.12 18.95, 0.38 5.89 M41.69 35.51 C31.9 25.46, 19.97 16.37, 0.56 -1.88 M41.8 37.48 C33.13 29.06, 24.26 21.84, 0.43 -0.07 M47.12 36.95 C38.37 26.65, 29.56 17.4, 5.51 1.43 M48.02 36.64 C38.29 27.52, 25.99 18.56, 7.24 1.19 M55.15 36.62 C43.75 26.87, 35.07 20.27, 12.6 0.79 M54.96 37.22 C41.5 25.61, 26.15 12, 12.52 -0.29 M60.83 37.27 C46.63 22.15, 28.74 8.53, 20.36 1.48 M60.44 36.12 C43.63 22.51, 27.83 6.93, 17.78 0.74 M66.34 37.26 C54.62 26.01, 44.25 16.85, 25.49 0.49 M66.23 37.9 C50.94 23.67, 36.35 10.08, 24.57 -1.16 M71.58 35.15 C63.51 27.43, 55.53 23.04, 30.76 -1.08 M72.43 36.22 C61.74 28.18, 50.8 18.81, 31.12 -0.01 M77.96 38.13 C67.74 29.01, 57.69 16.59, 35.46 -1.37 M80.06 37.91 C65.8 25.87, 54.59 14.51, 36.66 0.97 M86.96 38.63 C75.14 28.97, 59.84 17.59, 43.56 -0.65 M85.38 36.3 C70.51 24.02, 55.1 10.98, 42.26 0.14 M92.22 35.47 C79.6 24.19, 64.11 13.23, 49.74 1.88 M90.76 36.12 C76.79 25.06, 61.78 13.06, 48.71 -0.58 M97.59 37 C80.3 24.21, 67.05 8.44, 55.91 -1.37 M98.53 37.36 C85.78 25.93, 73.72 15.19, 53.82 0.53 M101.65 35.74 C88.04 22.85, 73.26 12.02, 61.1 0.1 M102.28 37.57 C88.24 22.41, 71.85 8.53, 60.03 0.14 M111.61 38.76 C98.32 25.01, 87.58 16.6, 65.97 1.46 M110.5 37.03 C92.46 22.77, 76.24 7.02, 67.77 0.27 M115.79 38.29 C106.08 28.94, 96.42 18.8, 74.86 1.71 M115.9 37.06 C101.45 24.09, 85.12 11.22, 73.27 0.04 M121.72 34.93 C105.81 23.94, 91.33 11.74, 79.93 0.82 M121.25 35.91 C107.89 24.85, 94.03 13.78, 79.44 0.67 M128.21 38.72 C117.81 28.47, 106.13 19.81, 83.61 0.35 M128.25 37.59 C116.39 25.91, 103.03 15.14, 84.19 -1.31 M132.63 38.44 C121.78 27.71, 113.82 18.14, 90.52 -0.14 M134.61 37.9 C125.07 29.35, 115.22 20.84, 91.04 0.15 M139 38.79 C127 24.75, 113.45 13.92, 97.96 1.52 M140.86 37.26 C128.57 26.15, 117.82 17.14, 97.43 -0.07 M148.07 35.47 C129.21 24.8, 113.34 7.43, 104.01 -0.72 M146.26 36.59 C129.52 23.7, 114.42 9.09, 103.61 0.6 M153.82 37.85 C139.9 27.39, 126.57 13.94, 109.57 2 M152.08 37.64 C142.81 27.83, 132.88 21.21, 110.46 0.3 M157.33 35.36 C142.45 22.57, 129.76 13.66, 114.93 0.04 M159.25 36.15 C142.57 23.09, 127.27 9.9, 114.82 -0.95 M163.32 36.11 C156.36 28.62, 145.52 21.21, 121.61 -0.27 M165.65 38.12 C150.32 25, 135.79 10.33, 121.12 -0.07 M170.21 38.04 C155.39 22.48, 137.61 9.78, 128.87 1.94 M169.99 37.75 C159.32 26.31, 148.12 16.81, 128.7 -0.66 M178.2 38.05 C158.6 21.74, 142.89 7.5, 135.8 1.23 M176.64 36.26 C163.56 25.73, 149.02 13.36, 133.62 -1.05 M183.8 36.64 C165.83 23.87, 152.33 11.28, 141.41 -0.97 M181.99 37.21 C167.84 23.28, 153.23 11.31, 139.61 0.48 M187.69 38.31 C177.25 26.89, 164.37 17.13, 147.14 0.23 M189 36.7 C176.09 26.06, 164.34 14.73, 146.27 -0.88 M194.21 33.56 C178.21 20.58, 165.48 8.85, 152.7 1.57 M192.6 34.01 C181.55 24.94, 170.77 16.38, 151.8 -0.42 M194.25 29.9 C184.32 22.13, 175.22 13.91, 158.65 0.33 M193.24 30.39 C184.82 21.97, 177.41 15.55, 159.24 -0.5 M191.54 23.8 C181.65 16.16, 172.13 3.25, 166.41 -0.63 M193.02 23.68 C182.88 14.88, 174.61 8.23, 165.38 0.24 M193.45 17.19 C184.42 13.2, 178.24 5.9, 172.39 -1.61 M193.29 18.54 C188.54 14.11, 183.66 11.13, 170.56 0.82 M193.29 13.36 C186.27 6.74, 181.52 3.18, 176.48 0.46 M192.66 13.13 C189.61 9.85, 184.18 7.56, 176.05 0.19 M193.81 9.53 C188.35 6.28, 184.88 2.56, 183.59 -1.03 M192.22 8.07 C188.94 5.64, 185.74 2.49, 183.37 0.24 M192.86 3.32 C192.46 2.57, 191.89 1.62, 189.47 0.56 M193.31 3.45 C191.63 2.62, 190.41 1.42, 189.21 0.38" stroke="#868e96" stroke-width="0.5" fill="none"></path><path d="M-1.89 0 C51.71 -2, 100.71 -1.03, 190.27 0.19 M0.92 0.26 C54.4 -0.33, 110.27 -0.69, 191.86 0.33 M192.97 -0.68 C192.66 7.5, 191.34 19.66, 191.92 35.65 M190.67 -0.07 C189.87 8.98, 190.72 17.45, 190.47 37.98 M189.47 37.92 C145.14 36.04, 101.14 35.06, 1.65 37.55 M191.92 36.25 C121.79 36.85, 51.98 37.01, 0.98 37.97 M0.76 36.18 C1.18 22.49, -0.48 7.29, 0.96 1.68 M0.76 36.57 C0.15 21.91, 0.72 7.9, -0.65 0.61" stroke="transparent" stroke-width="1" fill="none"></path></g><g stroke-linecap="round" transform="translate(403.3000030517578 289) rotate(0 239 127)"><path d="M32 0 M32 0 C152.41 0.03, 273.77 0.4, 446 0 M32 0 C122.21 0.04, 211.54 0, 446 0 M446 0 C465.53 0.06, 476.12 11.55, 478 32 M446 0 C465.57 0.05, 476.76 12.62, 478 32 M478 32 C478.01 106.9, 475.6 182.49, 478 222 M478 32 C476.69 100.88, 476.95 169.75, 478 222 M478 222 C479.01 243.35, 467.64 254.83, 446 254 M478 222 C477.5 241.43, 469.01 252.7, 446 254 M446 254 C329.8 254.47, 215.07 254.45, 32 254 M446 254 C345.24 255.2, 244.15 255.12, 32 254 M32 254 C9.98 252.8, 0.49 243.93, 0 222 M32 254 C8.85 256.23, -1.36 243.59, 0 222 M0 222 C-1.61 158.14, -0.17 98.31, 0 32 M0 222 C0.73 174.85, -0.29 125.78, 0 32 M0 32 C-0.37 10.69, 11.03 -1.44, 32 0 M0 32 C-1.66 10.95, 11.89 0.63, 32 0" stroke="#1e1e1e" stroke-width="1" fill="none"></path></g><g transform="translate(95.30000305175781 65) rotate(0 5.858333110809326 96)"><text x="0" y="0" font-family="Cascadia, Segoe UI Emoji" font-size="20px" fill="#1e1e1e" text-anchor="start" style="white-space: pre;" direction="ltr" dominant-baseline="text-before-edge">1</text><text x="0" y="24" font-family="Cascadia, Segoe UI Emoji" font-size="20px" fill="#1e1e1e" text-anchor="start" style="white-space: pre;" direction="ltr" dominant-baseline="text-before-edge">2</text><text x="0" y="48" font-family="Cascadia, Segoe UI Emoji" font-size="20px" fill="#1e1e1e" text-anchor="start" style="white-space: pre;" direction="ltr" dominant-baseline="text-before-edge">3</text><text x="0" y="72" font-family="Cascadia, Segoe UI Emoji" font-size="20px" fill="#1e1e1e" text-anchor="start" style="white-space: pre;" direction="ltr" dominant-baseline="text-before-edge">4</text><text x="0" y="96" font-family="Cascadia, Segoe UI Emoji" font-size="20px" fill="#1e1e1e" text-anchor="start" style="white-space: pre;" direction="ltr" dominant-baseline="text-before-edge">5</text><text x="0" y="120" font-family="Cascadia, Segoe UI Emoji" font-size="20px" fill="#1e1e1e" text-anchor="start" style="white-space: pre;" direction="ltr" dominant-baseline="text-before-edge">6</text><text x="0" y="144" font-family="Cascadia, Segoe UI Emoji" font-size="20px" fill="#1e1e1e" text-anchor="start" style="white-space: pre;" direction="ltr" dominant-baseline="text-before-edge">7</text><text x="0" y="168" font-family="Cascadia, Segoe UI Emoji" font-size="20px" fill="#1e1e1e" text-anchor="start" style="white-space: pre;" direction="ltr" dominant-baseline="text-before-edge">8</text></g><g stroke-linecap="round" transform="translate(922.3000030517578 20) rotate(0 190.5 133.5)"><path d="M0.98 -0.31 C151.74 0.33, 302.8 1.08, 380.77 -0.71 M-0.35 0.59 C83.26 2.39, 166.92 1.91, 381.29 0.04 M380.97 -1.03 C381.19 104.36, 381.38 205.97, 379.62 265.84 M381.67 -0.43 C379.87 92.21, 380.39 184.71, 380.39 266.88 M379.99 267.27 C259.7 268.98, 136.16 267.79, -0.64 266.63 M381.26 266.91 C279.32 267.62, 177.64 268.33, 0.15 266.4 M-0.86 266.25 C-2.32 175.78, -1.94 87.37, 0.18 -0.72 M-0.6 267.01 C0.47 175.14, 1.05 82.97, -0.4 -0.48" stroke="#1e1e1e" stroke-width="1" fill="none"></path></g><g stroke-linecap="round" transform="translate(920.3000030517578 19) rotate(0 191 15.5)"><path d="M0 0 C0 0, 0 0, 0 0 M0 0 C0 0, 0 0, 0 0 M-0.42 6.66 C1.64 5.64, 1.65 3.13, 4.59 1.13 M-0.44 6.74 C0.6 5.17, 1.99 3.88, 5.14 0.02 M1.19 13.36 C2.63 8.63, 5.48 6.93, 11.84 -0.66 M-0.62 11.88 C3.69 7.85, 6.07 5.25, 10.26 -0.11 M0.85 20.31 C3.58 16.56, 5.21 11.06, 16.64 -0.59 M0.34 17.47 C5.48 12.61, 9.66 6.61, 15.88 0.21 M-1.33 24.67 C6.32 16.55, 16.08 10.23, 20.87 0.18 M0.72 23.91 C4.09 19.54, 8.7 13.62, 20.52 0.6 M1.25 28.71 C8.66 22.59, 15.09 15.38, 28.11 -0.79 M0.81 29.53 C6.37 23.43, 13.2 15.55, 25.84 1.04 M3.19 33.25 C13.62 23.71, 21.91 9.87, 31.97 -1.54 M2.44 33.84 C11.25 22.27, 21.91 12.64, 32.4 0.09 M6.04 31.95 C17.06 22.55, 25.41 13.02, 38.3 1.97 M8.14 34.2 C14.15 25.68, 22.39 16.42, 37.3 0.42 M14.76 33.03 C21.88 21.88, 35.44 10.07, 43.66 -0.32 M13.35 33.32 C25.28 19.73, 34.46 8.69, 43.31 -0.56 M18.85 33.11 C26.43 23.58, 33.69 15.03, 49.28 1.24 M18.29 33.91 C28.32 22.42, 37.5 11.52, 48.49 0.89 M26.22 34 C33.9 22.13, 42.85 13.78, 51.41 -0.2 M23.49 33.23 C32.45 24.04, 41.55 13.46, 53.41 -0.62 M31.11 34.54 C40.57 19.8, 52.38 8.81, 59.37 1.86 M28.47 33.72 C39.43 21.79, 49.8 9.11, 58.75 0.07 M33.86 33.14 C46.25 19.35, 58.43 8.67, 61.88 -0.96 M35.23 33.3 C46.09 21.78, 57.37 7.71, 64.5 -0.79 M40.13 31.85 C47.92 24.38, 51.1 19.4, 69.09 1.94 M40.17 34.26 C49.7 21.4, 61.71 8.83, 69.57 -0.27 M46.14 34.43 C55.79 22.68, 64.3 15.11, 74.96 -0.09 M45.05 33.07 C52.24 23.84, 61.59 14.74, 75 -0.14 M52.42 34.91 C58.61 27.72, 61.69 17, 79.21 -1.11 M51.5 33.76 C58.44 24.39, 64.25 16.99, 79.58 0.72 M53.77 35.39 C62.98 24.76, 69.53 19.47, 85.75 1.21 M54.63 33.47 C67.46 20.44, 78.38 7.62, 85 -1.12 M61.7 33.89 C69.92 25.15, 78.06 15.91, 88.67 -0.6 M60.23 33.07 C68.48 25.02, 75.84 17.5, 89.55 0.01 M66.35 34.1 C76.75 19.45, 87.37 9.83, 94.59 0 M66.42 32.78 C75.37 23.8, 84.01 12.3, 95.21 -0.59 M70.93 33.24 C81.71 23.21, 90.16 12.16, 100.67 1.41 M72.77 32.67 C80.6 22.86, 88.62 13.36, 101.39 -0.34 M77.68 31.87 C87.54 24.46, 97.77 11.32, 105.01 1.65 M76.01 34.38 C86.2 21.24, 96.8 10.78, 105.99 -0.8 M82.28 33.69 C87.23 24.68, 95.8 19.87, 112.6 0.19 M83.16 33.61 C90.23 25.32, 95.71 17.19, 111.15 -0.12 M87.8 35.34 C95.94 23.7, 104.25 15.33, 117.12 -1.47 M87.16 33.78 C97.67 20.27, 109.4 8.67, 115.68 0.38 M91.14 34.25 C102.95 19.05, 114.77 6.47, 122.1 -1.75 M92.07 32.57 C100.09 26.03, 106.57 17.69, 122.03 -0.04 M96.96 34.41 C105.74 23.86, 115.13 11, 128.22 1.07 M98.73 33.58 C106.66 23.94, 114.23 14.33, 126.23 -0.59 M104.11 34.21 C111.18 24.1, 118.34 14.77, 133.01 -0.6 M103.85 32.84 C114.87 20.75, 124.98 9.46, 133.36 -0.7 M107.61 32.25 C116.34 26.39, 119.88 17.79, 138.85 0.2 M107.74 34.5 C116.46 23.93, 125.87 15.7, 138.25 0.63 M113.02 31.14 C124.14 19.84, 135.73 8.47, 141.37 -1.27 M113.45 33.33 C125.89 20.29, 137.09 5.91, 143.61 0.41 M118.44 35.33 C128.78 25.05, 136.23 14.8, 149.43 -1.59 M118.37 34.37 C127.87 22.55, 138.71 11.88, 148.68 0.24 M124.92 34.9 C132.53 26.56, 136.31 18.62, 153.48 0.61 M125.48 33.52 C132.88 25.74, 139.59 17.92, 153.4 -0.08 M130.37 35.4 C139.83 20.63, 150.05 9.63, 157.6 0.47 M130.91 33.13 C139.2 21.17, 151.6 10.5, 159.07 0.04 M136.06 33.62 C145.18 23.7, 153.84 12.75, 163.83 0.69 M135.18 32.55 C144.65 22.97, 153.05 14.32, 164.48 -0.43 M140.5 31.48 C148.81 24.26, 160.63 13.11, 168.21 -0.6 M140.81 33.82 C149.2 24.28, 157.58 14.43, 168.62 0.45 M145.27 32.48 C156.12 20.85, 166.93 8.67, 173.14 -0.1 M144.8 32.89 C152.8 25.59, 160.09 15.19, 174.76 -0.81 M152.19 31.87 C160.13 23.36, 166.05 13.88, 179.35 -1.46 M151.64 33.59 C162.34 20.72, 171.94 9.07, 179.17 -0.53 M154.57 32.66 C166.07 23.5, 177.14 10.21, 186.34 -1.54 M157.17 34.37 C167.56 20.78, 178.29 7.9, 185.25 -0.27 M160.99 32.18 C172.06 20.83, 185.13 8.99, 192.3 1.49 M162.13 32.71 C168.17 26.94, 173.53 19.5, 190.2 -0.24 M167.22 33.9 C178.4 21.82, 189.74 8.11, 194.58 -2.14 M166.8 33.68 C178.59 20.7, 189.79 7.54, 197.15 0.27 M172.68 33.25 C181.3 23.78, 187.52 13.11, 201.58 -1.87 M173.15 33.55 C182.65 19.84, 193.4 7.49, 201.84 -0.46 M176.36 33.45 C185.07 23.36, 196.02 10.9, 205.24 -1.12 M177.51 34.39 C186.76 23.07, 194.95 12.6, 206.77 -1.04 M181.26 35.26 C193.74 21.16, 204.24 7.74, 212.92 -1.37 M182.7 33.61 C190.82 24.66, 196.88 17.14, 211.85 -0.33 M186.34 32.86 C193.79 28.1, 201.28 19.84, 215.91 -0.43 M188.74 32.64 C198.83 23.22, 208.3 10.22, 218.56 0.09 M194.94 31.62 C198.14 27.38, 206.05 18.59, 221.28 -0.57 M192.93 32.46 C202.58 23.91, 209.66 13.43, 222.63 0.6 M198.74 31.95 C210.15 22.72, 219.99 10.63, 228.4 1.27 M198.58 34.22 C208.63 24.38, 216.9 13.44, 228.14 -0.95 M206.17 35.06 C215.34 20.34, 223.49 10.53, 232.81 1.28 M205.12 32.81 C214.88 19.39, 227.08 6.69, 232.23 -0.59 M210.36 34.83 C217.72 19.99, 229.16 11.6, 238.08 -0.65 M208.77 33.5 C215.68 26.36, 223.62 17.12, 238.57 0.09 M213.59 31.56 C223.29 23.13, 235.32 11.01, 242.92 -0.83 M214.71 33.47 C225.56 22.28, 236.21 10.08, 243.32 0.78 M219.2 31.87 C225.94 23.69, 233.63 18.21, 250.51 2.22 M219.69 34.48 C230.68 21.28, 242.06 7.61, 248.06 0.32 M224.07 34.41 C234.01 22.83, 240.76 15.05, 254.2 0.39 M226.24 32.37 C237.06 20.69, 248.14 6.56, 254.25 -0.01 M230.5 33.75 C241.72 19.75, 253.02 9.47, 259.5 1.8 M231.33 33.76 C241.69 22.18, 251.67 8.63, 258.96 1.19 M234.71 34.16 C240.62 25.01, 249.86 17.74, 266.48 -1.47 M236.45 33.53 C242.49 26.29, 247.96 19.36, 265.97 -0.06 M242.72 33.42 C251.01 23.57, 256.5 14.73, 271.74 0.56 M240.36 33.54 C250.07 22.64, 258.17 13.35, 269.44 0.54 M246.82 32.64 C256.98 22.58, 266.51 13.03, 274.81 -0.56 M247.17 32.1 C257.1 21.5, 267.86 10.07, 275.08 0.14 M253.51 32.1 C260.9 23.12, 268.03 15.19, 280.13 -1.77 M251.06 32.65 C258.46 27.51, 262.96 20.03, 279.8 0.32 M255.92 32.99 C269.16 22.52, 280.98 7.72, 287.45 -0.76 M258.4 33.31 C264.81 24.79, 270.73 16.98, 286.85 -0.3 M261.77 33.3 C274.64 23.05, 283.32 9.9, 289.79 1.86 M262.39 33.51 C269.69 25.65, 274.89 19.43, 291.49 -0.45 M269.11 34.34 C273.28 27.37, 280.58 16.91, 295.88 -1.64 M266.6 34.29 C277.06 21.55, 287.92 9.94, 296.15 0.34 M273.6 32.82 C279.94 24.37, 285.56 17.42, 300.07 -0.25 M272.9 33.16 C283.22 21.47, 293.8 9.64, 302.08 -0.6 M277.67 34.89 C288.31 21.33, 300.41 10.07, 308.8 -0.5 M278.37 33.99 C286.26 25.49, 292.78 16.07, 308.51 -0.59 M284.34 32.72 C290.21 25.92, 296.1 18.1, 314.53 -0.53 M283.82 34.26 C290.05 26.49, 297.02 18.24, 312.3 0.13 M287.13 34.33 C295.75 25.78, 304.19 15.73, 318.14 1.63 M289.45 32.74 C297.27 23.4, 306.99 14.01, 319.1 -1.15 M292.52 31.37 C301.35 22.86, 313.77 11.74, 322.93 1.91 M294 34.05 C303.34 23.97, 311.26 15.18, 323.02 0.11 M297.88 32.93 C310.33 19.04, 322.12 5.95, 329.02 -1.99 M298.4 34.24 C310.43 19.98, 322.62 7.65, 329.74 0.21 M305.91 33.39 C311.4 28.25, 315.17 21.22, 335.29 -0.78 M304.94 33.4 C312.68 24.07, 319.84 14.34, 334.23 0.83 M310.55 34.2 C319.82 22.67, 326.78 14.75, 337.81 -1.81 M310.91 33.27 C315.33 26.65, 322.88 18.47, 339.87 -0.35 M315.48 31.7 C324.19 20.77, 336.32 10.33, 343.81 0.82 M315.78 33.79 C325.84 23.49, 334.19 12.64, 344.1 -0.11 M319.99 34.96 C326.07 25.58, 336.24 16.79, 349.43 -1.26 M320.82 32.74 C331.56 20.03, 343.13 9.06, 348.93 -0.31 M325.45 33.51 C332.63 25.83, 342.81 17.32, 356.94 -0.57 M326.3 32.3 C332.57 26.53, 337.4 20.37, 355.89 -0.03 M329.25 35.28 C338.18 24.56, 347.39 16.44, 361.98 2.26 M331.1 32.67 C339.84 23.68, 349.06 12.87, 359.96 1.23 M335.23 34.29 C346.49 22.72, 352.54 14.98, 365.32 1.05 M335.91 32.63 C344.54 23.95, 352.21 16.16, 365.04 -0.1 M343.61 32.54 C347.4 26.13, 354.76 20.55, 368.82 -0.11 M342.86 33.17 C350.33 22.22, 361.3 11.03, 370.67 0.99 M349.46 31.8 C352.19 26.41, 360.09 18.24, 375.83 -1.05 M346.67 34.07 C354.99 24.78, 362.85 15.29, 376.12 -0.41 M352.58 35.4 C361.51 23.83, 370.18 13.01, 383.18 -1.71 M352.35 33.49 C362.83 21.36, 374.52 9, 381.09 -0.43 M359.99 32.08 C368.73 22.75, 379.78 11.64, 383.6 1.94 M358.3 32.55 C363.14 25.74, 369.23 18.41, 385.87 1.34 M363.85 33.78 C368.94 23.23, 376.2 17.97, 384.3 6.71 M363.98 32.96 C371.04 26.25, 375.94 17.79, 384.65 9.5 M367.9 31.45 C371.33 26.31, 375.81 22.31, 382.71 16.18 M369.12 33.58 C373.82 26.93, 377.58 22.08, 384.92 14.59 M373.44 32.97 C376.03 30.19, 378.79 28.22, 385.65 21.67 M373.36 33.95 C378.73 28.1, 382.4 22.93, 385.47 20.99 M377.89 34.45 C380.75 31.39, 382.87 28.5, 385.5 26.29 M378.62 33.9 C381.05 31.66, 382.71 29.65, 384.85 27.11" stroke="#868e96" stroke-width="0.5" fill="none"></path><path d="M0.27 0.72 C82.81 1.14, 163.57 1.3, 381.63 -0.39 M-0.09 0.11 C76.94 -0.75, 154.76 -0.83, 381.4 0.22 M381.05 -1.98 C380.59 8.93, 382.73 21.07, 381.09 31.92 M382.02 -0.07 C382.68 9.18, 382.87 16.53, 381.39 31.96 M380.98 31.84 C250.8 28.85, 116.28 29.89, 0.94 32.03 M382.39 30.96 C249.43 30.93, 116.98 30.91, -0.11 31.2 M0.69 31.11 C0.86 25.57, -1.08 18.09, 0.17 -1.57 M-0.83 31.36 C0.93 21.48, 0.65 10.23, -0.98 -0.75" stroke="transparent" stroke-width="1" fill="none"></path></g><g stroke-linecap="round" transform="translate(927.3000030517578 26) rotate(0 11.5 10.5)"><path d="M10.45 -0.04 C12.8 -0.46, 16.15 -0.17, 18.11 0.96 C20.08 2.08, 21.52 4.5, 22.22 6.71 C22.93 8.91, 23.25 11.81, 22.35 14.17 C21.44 16.52, 18.9 19.76, 16.81 20.82 C14.71 21.88, 12.19 21.33, 9.79 20.52 C7.39 19.7, 4 17.85, 2.39 15.91 C0.77 13.98, -0.11 11.05, 0.1 8.92 C0.3 6.78, 1.78 4.52, 3.6 3.11 C5.41 1.7, 9.51 0.97, 10.99 0.47 C12.48 -0.04, 12.54 -0.13, 12.53 0.07 M10.15 -1.12 C12.74 -1.77, 16.11 -0.06, 18.28 1.33 C20.45 2.72, 22.26 5.25, 23.18 7.2 C24.1 9.15, 24.89 11.21, 23.8 13.04 C22.71 14.87, 18.98 16.67, 16.67 18.17 C14.35 19.68, 12.42 22.29, 9.88 22.09 C7.35 21.89, 3.01 18.84, 1.45 16.98 C-0.11 15.11, 0.39 13.17, 0.53 10.9 C0.67 8.62, 0.68 5.05, 2.31 3.33 C3.95 1.61, 9.28 0.85, 10.35 0.57 C11.43 0.3, 8.9 1.54, 8.77 1.67" stroke="none" stroke-width="0" fill="#ffc9c9"></path><path d="M15.25 0.18 C17.5 0.8, 21.24 2.27, 22.48 4.41 C23.71 6.54, 23.35 10.49, 22.67 13 C21.98 15.51, 20.34 18.13, 18.36 19.48 C16.38 20.83, 13.15 21.27, 10.8 21.1 C8.44 20.93, 5.94 20.09, 4.23 18.47 C2.52 16.85, 1.1 13.7, 0.54 11.37 C-0.03 9.04, -0.22 6.16, 0.83 4.47 C1.88 2.79, 3.96 1.76, 6.83 1.25 C9.7 0.75, 16.16 1.17, 18.04 1.44 C19.91 1.7, 18.29 2.59, 18.08 2.86 M9.82 -1.22 C12.06 -1.63, 14.86 0.98, 16.72 2.25 C18.59 3.52, 20 4.56, 21.03 6.39 C22.07 8.21, 23.54 11.22, 22.92 13.19 C22.3 15.17, 19.32 17.09, 17.33 18.24 C15.33 19.39, 13.24 19.99, 10.95 20.09 C8.66 20.18, 5.35 20.14, 3.58 18.82 C1.81 17.51, 0.67 14.64, 0.32 12.21 C-0.02 9.78, -0.11 6.35, 1.51 4.24 C3.13 2.12, 8.69 0.02, 10.02 -0.49 C11.36 -1, 9.73 0.77, 9.51 1.18" stroke="#e03131" stroke-width="1" fill="none"></path></g><g stroke-linecap="round" transform="translate(966.8000030517578 25.5) rotate(0 11.5 10.5)"><path d="M6.49 1.63 C8.64 0.47, 12.04 0.26, 14.32 0.53 C16.61 0.8, 18.95 1.62, 20.23 3.25 C21.51 4.89, 22.1 7.96, 22 10.33 C21.9 12.71, 21.28 15.66, 19.63 17.5 C17.97 19.34, 14.37 20.93, 12.08 21.37 C9.8 21.81, 7.93 21.28, 5.91 20.14 C3.88 18.99, 0.77 16.77, -0.04 14.5 C-0.86 12.22, -0.45 8.93, 1.02 6.49 C2.49 4.04, 7.24 0.77, 8.79 -0.19 C10.35 -1.14, 10.53 0.41, 10.36 0.76 M13.26 0.86 C15.47 0.64, 17.86 -0.02, 19.57 1.6 C21.27 3.23, 23.16 8, 23.47 10.63 C23.77 13.25, 22.91 15.51, 21.39 17.34 C19.88 19.18, 16.87 21.06, 14.39 21.64 C11.91 22.22, 8.78 21.85, 6.49 20.8 C4.2 19.75, 1.42 17.76, 0.65 15.35 C-0.13 12.94, 1.25 8.54, 1.85 6.34 C2.44 4.14, 2.24 3.32, 4.2 2.16 C6.17 1.01, 12.33 -0.51, 13.64 -0.59 C14.94 -0.67, 12.15 1.4, 12.03 1.7" stroke="none" stroke-width="0" fill="#ffec99"></path><path d="M14.12 1.08 C16.51 1.25, 18.57 2.13, 19.91 3.66 C21.25 5.2, 22.21 7.99, 22.15 10.29 C22.09 12.6, 20.97 15.85, 19.55 17.48 C18.13 19.12, 15.81 19.83, 13.63 20.1 C11.45 20.38, 8.66 20.2, 6.48 19.12 C4.3 18.04, 1.43 15.68, 0.56 13.62 C-0.31 11.56, 0.51 8.72, 1.26 6.78 C2.01 4.83, 2.88 3.18, 5.07 1.93 C7.27 0.69, 12.73 -0.45, 14.41 -0.68 C16.09 -0.9, 15.21 0.19, 15.18 0.57 M15.38 1.22 C17.88 1.96, 22.16 2.79, 23.27 4.93 C24.38 7.07, 22.93 11.69, 22.05 14.05 C21.16 16.41, 20.03 17.75, 17.95 19.08 C15.86 20.42, 11.95 22.37, 9.54 22.05 C7.13 21.74, 4.87 19, 3.49 17.2 C2.12 15.39, 1.46 13.25, 1.27 11.22 C1.09 9.2, 0.92 6.88, 2.39 5.06 C3.86 3.24, 7.87 0.96, 10.07 0.31 C12.27 -0.33, 14.68 0.99, 15.58 1.18 C16.49 1.37, 15.53 1.34, 15.49 1.47" stroke="#f08c00" stroke-width="1" fill="none"></path></g><g stroke-linecap="round" transform="translate(1008.8000030517578 24.5) rotate(0 11.5 10.5)"><path d="M15.18 0.27 C17.31 0.68, 18.53 2.33, 19.95 4.09 C21.37 5.84, 23.69 8.47, 23.71 10.8 C23.72 13.13, 21.8 16.32, 20.05 18.08 C18.3 19.85, 15.62 21.14, 13.22 21.41 C10.82 21.67, 7.9 21.04, 5.66 19.65 C3.42 18.26, 0.63 15.16, -0.23 13.06 C-1.09 10.96, -0.48 9.19, 0.49 7.04 C1.46 4.89, 3.18 1.16, 5.59 0.14 C8 -0.88, 13.26 0.68, 14.95 0.92 C16.63 1.15, 15.65 1.54, 15.72 1.57 M9.59 0.16 C11.8 -0.17, 16.92 0.73, 18.87 2.01 C20.83 3.29, 20.72 5.74, 21.32 7.84 C21.93 9.93, 23.37 12.51, 22.5 14.57 C21.62 16.64, 18.75 19.35, 16.09 20.24 C13.44 21.13, 8.89 20.84, 6.57 19.93 C4.25 19.02, 3.26 16.53, 2.18 14.79 C1.1 13.05, -0.1 11.76, 0.1 9.51 C0.3 7.25, 1.65 2.9, 3.36 1.25 C5.07 -0.4, 9.01 -0.38, 10.36 -0.42 C11.71 -0.46, 11.15 0.86, 11.46 0.99" stroke="none" stroke-width="0" fill="#b2f2bb"></path><path d="M14.42 0.86 C16.63 1.21, 19.22 2.28, 20.6 3.85 C21.99 5.42, 22.65 8.02, 22.73 10.29 C22.82 12.55, 22.77 15.81, 21.11 17.44 C19.46 19.06, 15.44 19.61, 12.82 20.05 C10.19 20.49, 7.42 20.97, 5.37 20.08 C3.31 19.18, 1.26 16.99, 0.5 14.66 C-0.25 12.33, -0.08 8.23, 0.81 6.08 C1.7 3.93, 3.18 2.52, 5.84 1.77 C8.51 1.02, 14.63 1.38, 16.78 1.56 C18.92 1.75, 19.06 2.99, 18.7 2.88 M11.98 0.98 C14.71 0.98, 17.88 1.72, 19.92 2.79 C21.95 3.86, 23.99 5.23, 24.21 7.39 C24.42 9.54, 22.54 13.46, 21.21 15.74 C19.88 18.02, 18.57 20.39, 16.22 21.08 C13.87 21.78, 9.59 20.93, 7.12 19.89 C4.65 18.86, 2.38 16.61, 1.42 14.87 C0.46 13.13, 1.12 11.47, 1.37 9.45 C1.63 7.43, 1.13 4.25, 2.94 2.77 C4.74 1.28, 10.69 0.72, 12.21 0.55 C13.74 0.37, 12.05 1.69, 12.07 1.7" stroke="#2f9e44" stroke-width="1" fill="none"></path></g><g stroke-linecap="round" transform="translate(997.3000030517578 60) rotate(0 116 16)"><path d="M8 0 M8 0 C87.16 -1.78, 168.94 -1.81, 224 0 M8 0 C82.96 1.15, 156.08 1.06, 224 0 M224 0 C229.13 -1.31, 232.61 4.61, 232 8 M224 0 C229.6 -1.17, 230.89 4.06, 232 8 M232 8 C231.62 13.61, 231.14 17.57, 232 24 M232 8 C232.46 14.04, 231.51 19.97, 232 24 M232 24 C232.05 31.07, 230.63 31.14, 224 32 M232 24 C230.32 27.53, 229.33 31.45, 224 32 M224 32 C152.34 33.54, 84.66 32.95, 8 32 M224 32 C165.78 31.64, 106.62 32.15, 8 32 M8 32 C4.37 33.99, -1.76 30.23, 0 24 M8 32 C3.81 31.48, 1.12 27.52, 0 24 M0 24 C-0.56 20.57, -1.21 16.87, 0 8 M0 24 C0.55 19.48, 0.34 14.86, 0 8 M0 8 C1.75 1.56, 2.03 -0.67, 8 0 M0 8 C0.89 4.75, 3.46 1.65, 8 0" stroke="#1e1e1e" stroke-width="1" fill="none"></path></g><g transform="translate(1006.3000030517578 64) rotate(0 58.58333206176758 12)"><text x="0" y="0" font-family="Cascadia, Segoe UI Emoji" font-size="20px" fill="#1e1e1e" text-anchor="start" style="white-space: pre;" direction="ltr" dominant-baseline="text-before-edge">http://...</text></g><g stroke-linecap="round" transform="translate(924.3000030517578 250) rotate(0 187.5 14.5)"><path d="M0.31 4.24 C0.31 4.24, 0.31 4.24, 0.31 4.24 M0.31 4.24 C0.31 4.24, 0.31 4.24, 0.31 4.24 M0.05 10.64 C2.75 7.96, 3.38 6.11, 8.58 0.83 M0.05 10.64 C2.01 8.07, 4.2 6.46, 8.58 0.83 M0.44 16.28 C5.08 11.15, 8.38 5.69, 13.56 1.19 M0.44 16.28 C4.3 11.57, 8.34 7.88, 13.56 1.19 M0.84 21.93 C5.89 14.42, 12.62 9.13, 19.21 0.8 M0.84 21.93 C6.09 15.86, 12.31 8.07, 19.21 0.8 M1.89 26.82 C10.48 17.47, 15.13 10.29, 24.19 1.16 M1.89 26.82 C9.89 18.24, 17.91 9.46, 24.19 1.16 M4.91 29.44 C12.06 18.1, 20.78 11.25, 29.84 0.76 M4.91 29.44 C14.92 19.27, 23.7 7.71, 29.84 0.76 M9.24 30.56 C18.57 18.56, 29.62 8.72, 34.82 1.12 M9.24 30.56 C19 19.53, 28.21 7.69, 34.82 1.12 M14.22 30.92 C22.05 21.89, 34.63 10.95, 40.47 0.73 M14.22 30.92 C22.84 20.94, 31.32 9.52, 40.47 0.73 M19.87 30.52 C29.6 19.56, 34.76 10.03, 45.45 1.09 M19.87 30.52 C26.78 22.51, 33.37 16.24, 45.45 1.09 M24.85 30.88 C30.54 23.27, 38.81 13.77, 51.1 0.69 M24.85 30.88 C32.51 22.35, 40.03 13.62, 51.1 0.69 M30.5 30.49 C36.7 22.9, 45.73 11.33, 56.08 1.05 M30.5 30.49 C41.56 18.89, 50.05 7.87, 56.08 1.05 M35.48 30.85 C45.08 20.07, 56.77 6.02, 61.73 0.66 M35.48 30.85 C44.7 18.41, 55.68 7.97, 61.73 0.66 M41.13 30.45 C51.99 16.91, 61.26 8.06, 66.71 1.02 M41.13 30.45 C47.26 23.73, 53.25 15.76, 66.71 1.02 M46.11 30.81 C57.65 21.17, 65.27 6.88, 71.7 1.38 M46.11 30.81 C55.76 20.07, 66.13 8.36, 71.7 1.38 M51.76 30.42 C57.27 23.53, 64.66 15.52, 77.34 0.98 M51.76 30.42 C56.71 23.55, 63.4 16.42, 77.34 0.98 M56.74 30.78 C64.79 20.95, 76.85 11.98, 82.33 1.34 M56.74 30.78 C67.42 18.69, 76.02 7.83, 82.33 1.34 M62.39 30.38 C72.68 18.67, 80.72 8.89, 87.97 0.95 M62.39 30.38 C71.31 20.94, 80.79 10.56, 87.97 0.95 M67.37 30.74 C77.87 19.84, 87.42 10.88, 92.96 1.31 M67.37 30.74 C76.94 19.13, 86.41 8.68, 92.96 1.31 M73.02 30.35 C83.46 20.55, 90.95 9.5, 98.6 0.91 M73.02 30.35 C83.47 19.33, 92.53 8.92, 98.6 0.91 M78 30.71 C84.63 22.85, 92.27 15.23, 103.59 1.27 M78 30.71 C86.33 22.87, 93.55 13.34, 103.59 1.27 M83.65 30.31 C92.69 20.26, 100.67 11.35, 109.23 0.88 M83.65 30.31 C93.53 19.03, 102.29 9.54, 109.23 0.88 M88.63 30.67 C94.71 21.86, 104.23 14.67, 114.22 1.24 M88.63 30.67 C95.34 22.01, 104.21 13.73, 114.22 1.24 M94.28 30.28 C101.61 20.13, 109.46 12.01, 119.86 0.85 M94.28 30.28 C105.1 18.43, 115.03 6.01, 119.86 0.85 M99.27 30.64 C104.77 21.97, 112.8 15.78, 124.85 1.21 M99.27 30.64 C108.75 21.07, 118.44 10.04, 124.85 1.21 M104.25 31 C113.54 21, 125.87 8.7, 130.49 0.81 M104.25 31 C112.49 21.48, 121.94 11.31, 130.49 0.81 M109.9 30.6 C117.37 18.1, 128.99 10.08, 135.48 1.17 M109.9 30.6 C116.29 22.97, 123.74 15.48, 135.48 1.17 M114.88 30.96 C121.37 22.53, 126.11 16.68, 141.12 0.78 M114.88 30.96 C121.69 23.35, 128.33 15.96, 141.12 0.78 M120.53 30.57 C128.33 22.33, 133.67 15.84, 146.11 1.14 M120.53 30.57 C129.28 20.84, 138.8 9.66, 146.11 1.14 M125.51 30.93 C136.69 17.37, 145.37 8.77, 151.75 0.74 M125.51 30.93 C133.75 19.7, 142.96 10.36, 151.75 0.74 M131.16 30.54 C138.26 24.83, 146.25 16.74, 156.74 1.1 M131.16 30.54 C136.51 24.07, 144.1 16.84, 156.74 1.1 M136.14 30.9 C146.86 20.62, 157.39 9.06, 162.38 0.71 M136.14 30.9 C144.94 21.92, 153.92 10.34, 162.38 0.71 M141.79 30.5 C150.72 20.45, 162.86 8.89, 167.37 1.07 M141.79 30.5 C150.11 19.8, 160.1 9.37, 167.37 1.07 M146.77 30.86 C154 23.79, 159.81 15.4, 173.01 0.67 M146.77 30.86 C156.24 21.99, 164.04 10.6, 173.01 0.67 M152.42 30.47 C159.86 21.59, 170.42 10.71, 178 1.03 M152.42 30.47 C162.86 18.95, 172.27 9.72, 178 1.03 M157.4 30.83 C168.89 18.23, 178.67 7.8, 183.64 0.64 M157.4 30.83 C163.48 22.46, 170.66 15.73, 183.64 0.64 M163.05 30.43 C170.09 22.32, 180.26 10.46, 188.63 1 M163.05 30.43 C168.55 23.38, 174.42 17.29, 188.63 1 M168.03 30.79 C173.71 21.09, 183.62 15.92, 193.62 1.36 M168.03 30.79 C178.17 19.37, 188.55 8.4, 193.62 1.36 M173.68 30.4 C178.16 24.74, 184.33 17.19, 199.26 0.96 M173.68 30.4 C180.13 23.38, 186.51 17.02, 199.26 0.96 M178.66 30.76 C184.2 23.62, 192.71 17.1, 204.25 1.32 M178.66 30.76 C185.79 22.86, 191.26 15.85, 204.25 1.32 M184.31 30.36 C194.53 22.14, 202.39 11.33, 209.89 0.93 M184.31 30.36 C189.66 24.21, 196.49 16.27, 209.89 0.93 M189.29 30.72 C194.84 23.82, 202.26 17.62, 214.88 1.29 M189.29 30.72 C197.78 22.42, 204.92 14.06, 214.88 1.29 M194.94 30.33 C203.74 18.07, 214.32 8.09, 220.52 0.9 M194.94 30.33 C200.65 22.99, 207.67 15.27, 220.52 0.9 M199.92 30.69 C208.82 21.34, 219.85 9.68, 225.51 1.26 M199.92 30.69 C209.96 18.48, 219.83 6.75, 225.51 1.26 M205.57 30.29 C210.9 26.17, 217.64 18.86, 231.15 0.86 M205.57 30.29 C214.49 19.64, 223.43 10.88, 231.15 0.86 M210.55 30.65 C220.4 21.6, 227.46 10.33, 236.14 1.22 M210.55 30.65 C215.01 24.12, 221.49 18.5, 236.14 1.22 M215.54 31.01 C224.9 23.05, 234.51 10.93, 241.78 0.83 M215.54 31.01 C221.34 23.65, 228.66 17.98, 241.78 0.83 M221.18 30.62 C229.93 20.15, 237.68 11.57, 246.77 1.19 M221.18 30.62 C231.32 19.94, 239.67 9.28, 246.77 1.19 M226.17 30.98 C236.19 18.74, 247.53 5.25, 252.41 0.79 M226.17 30.98 C232.96 22.91, 240.94 14.53, 252.41 0.79 M231.81 30.59 C237.38 22.88, 243.14 16.92, 257.4 1.15 M231.81 30.59 C239.41 20.15, 249.07 10.35, 257.4 1.15 M236.8 30.95 C242.37 25.35, 249.35 17.33, 263.04 0.76 M236.8 30.95 C243.65 23, 250.23 14.29, 263.04 0.76 M242.44 30.55 C248.33 22.63, 252.39 17.44, 268.03 1.12 M242.44 30.55 C249.8 20.84, 257.76 12.57, 268.03 1.12 M247.43 30.91 C254.66 21.15, 261.76 14.84, 273.67 0.72 M247.43 30.91 C253.9 25.31, 259.91 18.85, 273.67 0.72 M253.07 30.52 C262.21 18.79, 274.48 8.16, 278.66 1.08 M253.07 30.52 C261.3 21.3, 268.53 12.27, 278.66 1.08 M258.06 30.88 C264.69 22.78, 272.56 12.85, 284.3 0.69 M258.06 30.88 C263.37 23.37, 269.37 16.77, 284.3 0.69 M263.7 30.48 C272.66 17.78, 282.5 7.23, 289.29 1.05 M263.7 30.48 C272.85 20.24, 281.21 10.47, 289.29 1.05 M268.69 30.84 C277.45 21.2, 288.08 6.63, 294.93 0.65 M268.69 30.84 C277.99 19.55, 288.47 9.27, 294.93 0.65 M274.33 30.45 C285.46 18.37, 291.68 8.98, 299.92 1.01 M274.33 30.45 C283.39 19.16, 293.14 7.34, 299.92 1.01 M279.32 30.81 C284.73 24.29, 289.38 17.49, 304.91 1.37 M279.32 30.81 C283.78 25.6, 290.14 18.05, 304.91 1.37 M284.96 30.41 C292.54 23.47, 298.36 14.03, 310.55 0.98 M284.96 30.41 C291.11 24.9, 296.73 17.57, 310.55 0.98 M289.95 30.77 C295.76 23.76, 303.08 15.92, 315.54 1.34 M289.95 30.77 C298.82 21.06, 306.15 11.83, 315.54 1.34 M295.59 30.38 C304.84 19.76, 314.79 8.49, 321.18 0.94 M295.59 30.38 C301.53 23.42, 306.56 17.66, 321.18 0.94 M300.58 30.74 C308.43 21.59, 318.8 10.24, 326.17 1.3 M300.58 30.74 C309.55 19.55, 318.99 8.66, 326.17 1.3 M306.22 30.34 C311 24.78, 315.61 15.33, 331.81 0.91 M306.22 30.34 C314.66 20.4, 324.45 8.89, 331.81 0.91 M311.21 30.7 C320.99 19.36, 329.55 9.86, 336.8 1.27 M311.21 30.7 C320.3 20.93, 329.79 8.62, 336.8 1.27 M316.85 30.31 C326.5 19.27, 334.56 8.64, 342.44 0.88 M316.85 30.31 C327.05 20.19, 335.09 9.45, 342.44 0.88 M321.84 30.67 C333 18.49, 341.29 11.22, 347.43 1.24 M321.84 30.67 C329.45 24.19, 335.34 15.66, 347.43 1.24 M326.83 31.03 C332.67 23.15, 337.83 19.4, 353.07 0.84 M326.83 31.03 C335.76 20.77, 345.11 8.42, 353.07 0.84 M332.47 30.64 C340.74 21.72, 347.44 13.85, 358.06 1.2 M332.47 30.64 C340.9 20.87, 350.43 10.33, 358.06 1.2 M337.46 31 C342.67 23.15, 347.3 17.83, 363.7 0.81 M337.46 31 C345.96 22.97, 352.91 12.81, 363.7 0.81 M343.1 30.6 C350.38 21.19, 362.98 9.82, 368.69 1.17 M343.1 30.6 C350.75 22.25, 356.37 15.37, 368.69 1.17 M348.09 30.96 C355.76 24.75, 360.86 16.88, 373.02 2.28 M348.09 30.96 C355.38 23.3, 361.9 16.23, 373.02 2.28 M353.73 30.57 C360.17 20.55, 370.24 9.71, 376.04 4.91 M353.73 30.57 C362.48 20.82, 371.26 10.39, 376.04 4.91 M358.72 30.93 C362.2 26.05, 368.84 20.97, 375.78 11.3 M358.72 30.93 C361.34 27.72, 364.75 22.81, 375.78 11.3 M364.36 30.53 C367.43 25.1, 370.66 20.48, 376.17 16.95 M364.36 30.53 C368.33 24.8, 373.86 19.59, 376.17 16.95 M369.35 30.89 C371.55 28.95, 375.01 23.95, 376.56 22.59 M369.35 30.89 C371.61 28.29, 374.33 24.5, 376.56 22.59 M1.66 27.05 C1.66 27.05, 1.66 27.05, 1.66 27.05 M1.66 27.05 C1.66 27.05, 1.66 27.05, 1.66 27.05 M8.06 27.31 C4.9 23.9, 3.33 21.86, 0.51 20.75 M8.06 27.31 C5.9 25.54, 3.87 24.54, 0.51 20.75 M14.45 27.58 C8.07 23.95, 4.29 20.12, 0.87 15.77 M14.45 27.58 C10.78 24.89, 6.97 21.56, 0.87 15.77 M20.85 27.84 C15.79 23.03, 8.24 19.23, 1.23 10.78 M20.85 27.84 C15.63 22.18, 9.2 17.72, 1.23 10.78 M26.49 27.44 C19.35 21.91, 11.56 12.05, 0.83 5.14 M26.49 27.44 C20.65 22.1, 12.91 16.44, 0.83 5.14 M32.89 27.7 C21.42 18.79, 10.93 8.05, 2.7 1.46 M32.89 27.7 C25.8 21.54, 19.01 15.85, 2.7 1.46 M39.29 27.97 C28.1 18.66, 14.98 5.62, 5.33 -1.56 M39.29 27.97 C26.63 18.42, 15.26 6.71, 5.33 -1.56 M44.93 27.57 C31.75 14.98, 17.26 5.48, 9.46 -3.26 M44.93 27.57 C36.95 19.77, 28.39 13, 9.46 -3.26 M51.33 27.83 C41.58 16.75, 26.46 7.49, 15.86 -3 M51.33 27.83 C42.53 20.9, 35.71 13.18, 15.86 -3 M56.97 27.44 C44.14 15.69, 32.77 5.38, 22.26 -2.74 M56.97 27.44 C43.06 16.41, 29.16 4.11, 22.26 -2.74 M63.37 27.7 C50.98 17.47, 35.7 4.7, 27.9 -3.14 M63.37 27.7 C50.84 15.9, 38.74 5.33, 27.9 -3.14 M69.77 27.96 C58.33 18.62, 47.89 7.7, 34.3 -2.87 M69.77 27.96 C58.91 19.53, 49.69 11.33, 34.3 -2.87 M75.41 27.57 C63.7 16.31, 53.48 7.49, 39.94 -3.27 M75.41 27.57 C64.8 19.04, 56.25 10.85, 39.94 -3.27 M81.81 27.83 C74.19 18.88, 64.24 10.42, 46.34 -3.01 M81.81 27.83 C69.42 15.82, 56.15 5.68, 46.34 -3.01 M87.45 27.43 C78.46 17.84, 65.69 10.49, 52.74 -2.75 M87.45 27.43 C73.65 16.11, 61.92 4.38, 52.74 -2.75 M93.85 27.69 C86.85 20.28, 77.63 13.63, 58.38 -3.14 M93.85 27.69 C86.85 21.62, 77.95 14.82, 58.38 -3.14 M100.25 27.96 C90.84 18.58, 83.01 13.58, 64.78 -2.88 M100.25 27.96 C91.11 20.23, 84.07 13.44, 64.78 -2.88 M105.89 27.56 C97.04 20.94, 89.21 13.4, 70.42 -3.27 M105.89 27.56 C98.27 19.63, 88.33 12.66, 70.42 -3.27 M112.29 27.82 C101.73 17.32, 88.98 8.89, 76.82 -3.01 M112.29 27.82 C100.91 16.55, 89.67 7.11, 76.82 -3.01 M117.93 27.43 C108.13 17.05, 94.08 8.61, 83.22 -2.75 M117.93 27.43 C110.21 19.77, 102.09 14.38, 83.22 -2.75 M124.33 27.69 C109.17 16.27, 96.22 5.19, 88.86 -3.14 M124.33 27.69 C112.77 17.68, 101.8 7.47, 88.86 -3.14 M130.73 27.95 C117.34 18.87, 107.72 8.77, 95.26 -2.88 M130.73 27.95 C119.36 17.15, 106.45 7.69, 95.26 -2.88 M136.37 27.56 C123.99 16.23, 107.6 1.1, 100.9 -3.28 M136.37 27.56 C123.28 15.38, 107.88 4.42, 100.9 -3.28 M142.77 27.82 C131.81 18.7, 120.92 9.07, 107.3 -3.02 M142.77 27.82 C130.57 17.41, 120.67 7.45, 107.3 -3.02 M148.41 27.42 C138.5 18.96, 133.4 12.18, 113.7 -2.75 M148.41 27.42 C138.54 20.2, 130.08 12.98, 113.7 -2.75 M154.81 27.69 C139.54 16.18, 128.77 2.47, 119.34 -3.15 M154.81 27.69 C142.52 15.97, 128.06 5.67, 119.34 -3.15 M161.21 27.95 C149.74 17.65, 135.89 5.29, 125.74 -2.89 M161.21 27.95 C148.25 16.89, 137.47 5.96, 125.74 -2.89 M166.85 27.55 C155.64 18.07, 143.2 10.29, 132.13 -2.63 M166.85 27.55 C153.16 16.16, 141.41 6.19, 132.13 -2.63 M173.25 27.81 C165.66 19.79, 158.54 13.27, 137.78 -3.02 M173.25 27.81 C163.91 18.2, 153.34 9.65, 137.78 -3.02 M178.89 27.42 C167.91 16.18, 154.32 5.25, 144.18 -2.76 M178.89 27.42 C168.53 17.95, 159.85 11.03, 144.18 -2.76 M185.29 27.68 C173.66 18.76, 165.32 10.34, 149.82 -3.15 M185.29 27.68 C170.73 15.65, 157.98 2.75, 149.82 -3.15 M191.69 27.94 C184.7 21.47, 178.46 16.43, 156.22 -2.89 M191.69 27.94 C184.61 21.11, 176.79 15.9, 156.22 -2.89 M197.33 27.55 C190.38 18.86, 183.93 14.51, 162.61 -2.63 M197.33 27.55 C184.83 16.06, 171.23 5.94, 162.61 -2.63 M203.73 27.81 C194.69 21.86, 187.05 13.26, 168.26 -3.03 M203.73 27.81 C195.33 19.6, 184.88 11.16, 168.26 -3.03 M209.37 27.41 C197.05 16.6, 183.14 5.99, 174.65 -2.76 M209.37 27.41 C196.67 17.05, 183.59 4.46, 174.65 -2.76 M215.77 27.68 C206.78 17.84, 196.23 9.98, 180.3 -3.16 M215.77 27.68 C204.21 17.15, 193.56 7.98, 180.3 -3.16 M222.17 27.94 C216.27 21.81, 206.17 16.9, 186.7 -2.9 M222.17 27.94 C214.26 20.1, 206.7 14.02, 186.7 -2.9 M227.81 27.54 C215.1 17.86, 204.26 4.47, 193.09 -2.64 M227.81 27.54 C216.74 18.53, 205.77 9.26, 193.09 -2.64 M234.21 27.8 C224.81 21.59, 214.13 11.5, 198.74 -3.03 M234.21 27.8 C221.38 16.05, 208.67 6.44, 198.74 -3.03 M239.85 27.41 C227.66 18.03, 217.5 6.06, 205.13 -2.77 M239.85 27.41 C231 20.28, 221.91 12.23, 205.13 -2.77 M246.25 27.67 C231.93 17.32, 221.8 4.08, 210.78 -3.16 M246.25 27.67 C237.21 20.78, 228.47 12.53, 210.78 -3.16 M252.65 27.93 C239.87 17.68, 230.75 7.11, 217.18 -2.9 M252.65 27.93 C243.07 19.71, 234.07 11.73, 217.18 -2.9 M258.29 27.54 C251.63 18.9, 242.38 12.79, 223.57 -2.64 M258.29 27.54 C251.14 21.13, 242.7 14.53, 223.57 -2.64 M264.69 27.8 C256.69 18.95, 247.83 11.71, 229.22 -3.04 M264.69 27.8 C252.67 16.82, 240.93 6.89, 229.22 -3.04 M270.33 27.4 C262.33 19.69, 253.44 12.2, 235.61 -2.77 M270.33 27.4 C263.43 21.66, 255.43 14.14, 235.61 -2.77 M276.73 27.67 C266.62 18.13, 255.78 8.69, 241.26 -3.17 M276.73 27.67 C264.77 15.55, 252.02 4.75, 241.26 -3.17 M283.13 27.93 C272.25 16.42, 258.13 7.8, 247.65 -2.91 M283.13 27.93 C274.89 21.07, 264.93 12.24, 247.65 -2.91 M288.77 27.53 C275.73 18.34, 265.8 8.85, 254.05 -2.65 M288.77 27.53 C276.94 17.17, 265.54 7.26, 254.05 -2.65 M295.17 27.79 C287.56 22.23, 278.76 15.97, 259.7 -3.04 M295.17 27.79 C281.7 17.35, 270.06 5.12, 259.7 -3.04 M300.81 27.4 C290.78 16.98, 277.5 7.87, 266.09 -2.78 M300.81 27.4 C290.84 19.2, 280.07 10.27, 266.09 -2.78 M307.21 27.66 C294.29 16.98, 281.85 5.57, 271.74 -3.17 M307.21 27.66 C299.37 21.09, 292.05 14.32, 271.74 -3.17 M313.61 27.92 C307.78 20.08, 299.25 15.02, 278.13 -2.91 M313.61 27.92 C304.74 20.16, 298.11 14.54, 278.13 -2.91 M319.25 27.53 C309.08 17.72, 298.13 5.76, 284.53 -2.65 M319.25 27.53 C307.35 18.19, 297 8.27, 284.53 -2.65 M325.65 27.79 C315.83 18.23, 306.33 9.65, 290.18 -3.05 M325.65 27.79 C313.7 16.26, 299.28 4.93, 290.18 -3.05 M331.29 27.39 C318.63 16.22, 308.59 6.11, 296.57 -2.78 M331.29 27.39 C321.91 19.31, 311.84 10.97, 296.57 -2.78 M337.69 27.66 C326.54 19.19, 312.99 8.51, 302.22 -3.18 M337.69 27.66 C328.16 20.21, 319.89 12.11, 302.22 -3.18 M344.09 27.92 C332.49 20.07, 321.41 8.62, 308.61 -2.92 M344.09 27.92 C336.61 22.25, 329.07 15.57, 308.61 -2.92 M349.73 27.52 C336.68 16.74, 327.59 6.05, 315.01 -2.66 M349.73 27.52 C338.87 18.5, 329.75 10.57, 315.01 -2.66 M356.13 27.78 C346.59 18.64, 341.91 14.35, 320.65 -3.05 M356.13 27.78 C343.22 15.64, 329.01 2.95, 320.65 -3.05 M361.77 27.39 C351.11 16.12, 337.75 5.88, 327.05 -2.79 M361.77 27.39 C354.44 20.85, 345.76 15.26, 327.05 -2.79 M368.92 28.31 C354.55 18.04, 342.62 5.92, 332.7 -3.18 M368.92 28.31 C359.96 19.71, 348.85 11.46, 332.7 -3.18 M373.06 26.6 C359.53 13.84, 348.49 5.22, 339.09 -2.92 M373.06 26.6 C364.53 20.92, 357.76 13.93, 339.09 -2.92 M374.92 22.93 C366.19 14.7, 354.46 4.86, 345.49 -2.66 M374.92 22.93 C363.44 12.88, 351.42 4.41, 345.49 -2.66 M376.79 19.25 C366.31 12.51, 356.48 1.62, 351.13 -3.06 M376.79 19.25 C370.1 14.04, 365.64 8.34, 351.13 -3.06 M377.15 14.26 C374.24 12.15, 367.49 9.01, 357.53 -2.79 M377.15 14.26 C373.31 9.66, 368.4 6.25, 357.53 -2.79 M376.76 8.62 C373.63 6.38, 369.45 4.08, 363.18 -3.19 M376.76 8.62 C371.86 4.14, 367.7 -0.32, 363.18 -3.19" stroke="#a5d8ff" stroke-width="0.5" fill="none"></path><path d="M7.25 0 M7.25 0 C101.92 -2.28, 199.23 -0.71, 367.75 0 M7.25 0 C107.74 -0.83, 208.84 -0.4, 367.75 0 M367.75 0 C371.18 -0.88, 374.17 4.04, 375 7.25 M367.75 0 C374.84 -1.24, 373.85 3.38, 375 7.25 M375 7.25 C375.58 13.4, 374.04 19.04, 375 21.75 M375 7.25 C375.42 10.79, 375.07 15.54, 375 21.75 M375 21.75 C374 26.51, 371.28 27.12, 367.75 29 M375 21.75 C372.91 25.19, 371.78 29.11, 367.75 29 M367.75 29 C235.88 30.74, 106.06 29.27, 7.25 29 M367.75 29 C291.34 29.72, 213.54 29.44, 7.25 29 M7.25 29 C2.63 30.19, 0.63 27.35, 0 21.75 M7.25 29 C3.1 30.18, 2.1 25.92, 0 21.75 M0 21.75 C1.06 16.81, -1.13 13.31, 0 7.25 M0 21.75 C0.53 18.04, 0.05 14, 0 7.25 M0 7.25 C0.35 3.94, 0.98 -0.39, 7.25 0 M0 7.25 C-1.2 4.05, 1.47 0.74, 7.25 0" stroke="#1e1e1e" stroke-width="1" fill="none"></path></g><g transform="translate(932.3000030517578 252) rotate(0 46.86666488647461 12)"><text x="0" y="0" font-family="Cascadia, Segoe UI Emoji" font-size="20px" fill="#1e1e1e" text-anchor="start" style="white-space: pre;" direction="ltr" dominant-baseline="text-before-edge">ws://...</text></g><g stroke-linecap="round" transform="translate(753.3000030517578 304) rotate(0 60 110.5)"><path d="M4.27 11.66 C4.27 11.66, 4.27 11.66, 4.27 11.66 M4.27 11.66 C4.27 11.66, 4.27 11.66, 4.27 11.66 M0.73 21.83 C7.06 14.68, 15.45 4.95, 17.78 2.21 M0.73 21.83 C6.98 14.99, 14.26 7.27, 17.78 2.21 M3.09 25.21 C7.9 19.35, 15.25 12.66, 23.43 1.82 M3.09 25.21 C8.43 20.64, 11.39 15.49, 23.43 1.82 M2.83 31.61 C12.69 23.2, 21.33 12.83, 30.38 -0.09 M2.83 31.61 C9.36 25.05, 15.3 17.49, 30.38 -0.09 M3.22 37.25 C11.89 26.52, 20.2 19.22, 35.37 0.27 M3.22 37.25 C10.69 29.88, 17.15 22.79, 35.37 0.27 M2.96 43.65 C15.55 29.95, 23.39 19.76, 41.01 -0.12 M2.96 43.65 C16.58 27.55, 30.01 12.67, 41.01 -0.12 M2.7 50.05 C11.18 38.24, 21.75 27.98, 46 0.24 M2.7 50.05 C12.52 39.27, 22.69 27.93, 46 0.24 M3.09 55.69 C17.32 43.01, 30.26 25.28, 50.99 0.6 M3.09 55.69 C13.44 44.21, 22.67 32.68, 50.99 0.6 M2.83 62.09 C21.62 41.78, 39.16 20.05, 56.63 0.2 M2.83 62.09 C15.3 47.63, 25.88 34.22, 56.63 0.2 M3.23 67.73 C24.62 43.36, 42.68 21.73, 61.62 0.56 M3.23 67.73 C20.14 50.78, 36.31 32.44, 61.62 0.56 M2.97 74.13 C21.81 54.92, 37.1 31.68, 67.26 0.17 M2.97 74.13 C26.54 46.75, 48.87 20.31, 67.26 0.17 M2.71 80.53 C18.85 63.91, 31.26 45.59, 72.25 0.53 M2.71 80.53 C26.7 54.49, 48.67 27.37, 72.25 0.53 M3.1 86.17 C20.39 64.9, 38.53 44.91, 77.89 0.13 M3.1 86.17 C23.86 61.7, 43.12 37.7, 77.89 0.13 M2.84 92.57 C32.09 58.89, 56.94 27.98, 82.88 0.49 M2.84 92.57 C22.91 70.57, 41 48.06, 82.88 0.49 M2.58 98.97 C33.82 64.18, 65.67 26.5, 87.86 0.85 M2.58 98.97 C37.07 60.27, 69.6 21.54, 87.86 0.85 M2.97 104.61 C25.06 78.81, 47.28 56.41, 93.51 0.46 M2.97 104.61 C37.25 65.78, 71.23 26.27, 93.51 0.46 M2.71 111.01 C33.02 74.59, 61.96 40.27, 97.84 1.57 M2.71 111.01 C24.44 86.29, 45.23 62.03, 97.84 1.57 M3.1 116.65 C35.25 82.38, 64.48 45.79, 102.17 2.69 M3.1 116.65 C36.19 76.87, 68.58 39.74, 102.17 2.69 M2.84 123.05 C40.06 83, 74.97 42.78, 106.5 3.8 M2.84 123.05 C29.06 92.23, 53.39 61.75, 106.5 3.8 M2.58 129.45 C32.04 100.15, 58.49 64.75, 110.18 5.67 M2.58 129.45 C34.5 92.87, 67.17 57.19, 110.18 5.67 M2.98 135.09 C41.19 90.14, 83.3 41.63, 113.19 8.3 M2.98 135.09 C32.23 101.33, 60.54 68.58, 113.19 8.3 M2.71 141.49 C35.55 104.96, 64.94 69.82, 115.56 11.68 M2.71 141.49 C28.74 111.98, 55.22 82.4, 115.56 11.68 M2.45 147.88 C38.55 107.76, 71.58 69.67, 117.92 15.06 M2.45 147.88 C28.56 117.82, 53.3 88.21, 117.92 15.06 M2.85 153.53 C29.66 120.16, 56.41 92.15, 120.28 18.43 M2.85 153.53 C32.52 119.12, 63.16 84.14, 120.28 18.43 M2.59 159.92 C46.15 110.7, 89.86 60.41, 120.68 24.08 M2.59 159.92 C47.9 108.81, 92.13 55.69, 120.68 24.08 M2.98 165.57 C41.07 123.84, 77.85 78.68, 120.42 30.47 M2.98 165.57 C44.48 119.74, 83.77 73.33, 120.42 30.47 M2.72 171.97 C44.43 122.8, 88.6 73.47, 120.15 36.87 M2.72 171.97 C48.19 119.36, 93.41 66.9, 120.15 36.87 M2.46 178.36 C43.98 130.23, 87.12 84.99, 120.55 42.52 M2.46 178.36 C46.6 128.19, 90.75 79.21, 120.55 42.52 M2.85 184.01 C47.76 132.48, 92.3 79.63, 120.29 48.91 M2.85 184.01 C44.94 134.52, 87.03 87.02, 120.29 48.91 M1.28 191.91 C40.1 150.2, 77.33 105.33, 120.68 54.56 M1.28 191.91 C32.66 154.52, 67.77 116.04, 120.68 54.56 M1.67 197.56 C35.11 157.31, 69.15 119.62, 120.42 60.95 M1.67 197.56 C47.97 143.57, 94.16 90.9, 120.42 60.95 M2.72 202.45 C28.24 172.72, 51.21 147, 120.16 67.35 M2.72 202.45 C40.55 157.36, 78.9 112.62, 120.16 67.35 M4.43 206.58 C34.13 171.75, 61.35 136.94, 120.55 73 M4.43 206.58 C40.5 165.46, 75.71 124.53, 120.55 73 M6.79 209.96 C47.88 161.42, 94.27 111.72, 120.29 79.39 M6.79 209.96 C32.31 180.72, 56.99 152.2, 120.29 79.39 M8.5 214.09 C32.82 186.1, 61.88 155.79, 120.03 85.79 M8.5 214.09 C39.07 179.34, 69.9 144.89, 120.03 85.79 M11.52 216.72 C35.79 188.01, 59.24 159.98, 120.43 91.43 M11.52 216.72 C54.69 165.07, 99.73 115.66, 120.43 91.43 M14.54 219.34 C44.02 184.68, 74.84 150.79, 120.16 97.83 M14.54 219.34 C51.2 177.36, 89.7 134.51, 120.16 97.83 M18.87 220.45 C45.85 187.48, 73.94 158.26, 120.56 103.47 M18.87 220.45 C52.06 181.52, 86.39 143.04, 120.56 103.47 M23.86 220.81 C41.74 198.44, 63.74 176.35, 120.3 109.87 M23.86 220.81 C43.5 199.2, 62.91 174.31, 120.3 109.87 M28.84 221.17 C52.58 192.38, 74.61 163.58, 120.04 116.27 M28.84 221.17 C49.48 198.44, 70.8 175.07, 120.04 116.27 M33.83 221.54 C63.47 184.78, 94.22 151.21, 120.43 121.91 M33.83 221.54 C66.84 183.45, 99.97 146.09, 120.43 121.91 M39.47 221.14 C66.94 190.67, 91.6 157.18, 120.17 128.31 M39.47 221.14 C65.99 190.47, 93.6 160.31, 120.17 128.31 M44.46 221.5 C59.93 201.44, 78.58 184.37, 119.91 134.71 M44.46 221.5 C75.64 187.26, 104.46 151.61, 119.91 134.71 M50.1 221.11 C63.62 204.58, 77.59 188.59, 120.3 140.35 M50.1 221.11 C65.77 202.38, 81.81 182.98, 120.3 140.35 M55.09 221.47 C69.04 206.76, 84.6 189.27, 120.04 146.75 M55.09 221.47 C72.45 201.51, 90.09 182.48, 120.04 146.75 M60.73 221.07 C84.17 193.87, 103.96 168.74, 120.43 152.39 M60.73 221.07 C81.85 197.92, 100.32 175.11, 120.43 152.39 M65.72 221.43 C82.49 200.16, 102.72 181.55, 120.17 158.79 M65.72 221.43 C85.38 197.93, 107.19 175.17, 120.17 158.79 M70.71 221.79 C89.25 201.21, 106.71 184.13, 119.91 165.19 M70.71 221.79 C81.33 208.95, 91.56 198.41, 119.91 165.19 M76.35 221.4 C86.35 207.44, 97.76 197.16, 120.31 170.83 M76.35 221.4 C85.34 209.78, 95.72 199.35, 120.31 170.83 M81.34 221.76 C97.26 203.32, 113.23 186.33, 120.05 177.23 M81.34 221.76 C90.86 211.64, 98.1 202.61, 120.05 177.23 M86.98 221.36 C91.88 215.76, 101.8 206.4, 119.78 183.63 M86.98 221.36 C95.79 211.94, 104.22 202.1, 119.78 183.63 M91.31 222.48 C97.19 215.66, 103.92 207.25, 120.18 189.27 M91.31 222.48 C99.69 212.68, 109.42 202.02, 120.18 189.27 M97.61 221.33 C106.9 211.77, 114.99 201.58, 119.92 195.67 M97.61 221.33 C104.07 213.59, 109.01 208.25, 119.92 195.67 M103.91 220.18 C107.27 215.56, 114.51 210.76, 121.62 199.8 M103.91 220.18 C108.96 215.5, 111.79 210.94, 121.62 199.8 M7.7 213.68 C7.7 213.68, 7.7 213.68, 7.7 213.68 M7.7 213.68 C7.7 213.68, 7.7 213.68, 7.7 213.68 M14.1 213.94 C10.9 209.85, 6.12 205.39, 2.03 203.44 M14.1 213.94 C9.79 210.93, 6.18 207.46, 2.03 203.44 M25.03 218.14 C18.27 211.88, 12.23 205.12, 1.63 197.8 M25.03 218.14 C19.34 214.19, 14.56 209.54, 1.63 197.8 M31.43 218.4 C25.93 212.18, 19.89 207.78, 0.48 191.5 M31.43 218.4 C24.26 211.51, 17.82 206.31, 0.48 191.5 M37.07 218 C26.33 210.43, 21.16 202.02, 2.35 187.83 M37.07 218 C23.88 207.44, 11.51 195.13, 2.35 187.83 M43.47 218.27 C29.01 203.06, 11.45 190.94, 2.71 182.84 M43.47 218.27 C31.62 207.33, 19 197.51, 2.71 182.84 M49.86 218.53 C32.76 204.42, 16.36 186.78, 2.32 177.2 M49.86 218.53 C32.48 202.58, 13.24 187.1, 2.32 177.2 M55.51 218.13 C39.18 202.98, 18.54 188.14, 2.68 172.21 M55.51 218.13 C44.67 207.73, 34.64 199.55, 2.68 172.21 M61.91 218.39 C43.76 202.62, 24.98 186.59, 2.28 166.57 M61.91 218.39 C42.24 202.38, 24.58 186.35, 2.28 166.57 M68.3 218.66 C51.54 201.75, 30.18 186.14, 2.64 161.58 M68.3 218.66 C42.35 195.7, 17.02 174.86, 2.64 161.58 M73.95 218.26 C52.54 202.32, 32.94 185.69, 3 156.59 M73.95 218.26 C50.1 197, 24.54 176.01, 3 156.59 M80.34 218.52 C52.21 191.1, 20.87 166.9, 2.61 150.95 M80.34 218.52 C56 198.04, 29.61 174.48, 2.61 150.95 M86.74 218.78 C63.89 200.93, 42.57 182.23, 2.97 145.96 M86.74 218.78 C67.08 202.16, 49.4 185.59, 2.97 145.96 M92.39 218.39 C70.5 197, 46.57 177.54, 2.57 140.32 M92.39 218.39 C70.44 200.69, 49.71 181.33, 2.57 140.32 M97.27 217.34 C66.4 191.29, 39.14 163.74, 2.93 135.33 M97.27 217.34 C60.04 185.48, 22.94 151.92, 2.93 135.33 M104.43 218.26 C79.67 196.32, 51.9 174.11, 2.54 129.69 M104.43 218.26 C69.15 187.71, 32.96 154.92, 2.54 129.69 M107.8 215.89 C73.76 188.27, 43.63 158.04, 2.9 124.7 M107.8 215.89 C75.55 188.31, 45.61 162.39, 2.9 124.7 M111.18 213.53 C67.65 178.54, 27.35 143.05, 2.51 119.06 M111.18 213.53 C80.09 186.25, 50.18 159.07, 2.51 119.06 M114.56 211.17 C73.59 171.72, 26.67 134.98, 2.87 114.07 M114.56 211.17 C89.83 187.23, 62.53 165.62, 2.87 114.07 M117.19 208.15 C76.81 174.75, 40.05 140.81, 2.47 108.43 M117.19 208.15 C92.1 185, 65.14 162.46, 2.47 108.43 M118.3 203.82 C82.82 175.66, 51.93 146.7, 2.83 103.44 M118.3 203.82 C81.62 172.22, 46.29 141.78, 2.83 103.44 M119.42 199.49 C83.07 163.53, 43.69 132.11, 3.19 98.45 M119.42 199.49 C76.92 163.98, 36.55 127.55, 3.19 98.45 M121.29 195.81 C95.14 173.86, 66 148.46, 2.8 92.81 M121.29 195.81 C84.6 162.73, 46.37 130.76, 2.8 92.81 M121.65 190.82 C93.94 165.56, 65.72 140.59, 3.16 87.82 M121.65 190.82 C90.18 162.94, 60.12 136.36, 3.16 87.82 M121.25 185.18 C94.97 161.91, 67.04 137.04, 2.76 82.18 M121.25 185.18 C96.89 164.17, 71.49 140.59, 2.76 82.18 M121.61 180.19 C98.62 158.62, 70.94 135.99, 3.12 77.19 M121.61 180.19 C91.96 154.48, 60.5 128.07, 3.12 77.19 M121.22 174.55 C73.01 132.7, 25.14 91.65, 2.73 71.55 M121.22 174.55 C89.24 145.22, 56.42 117.78, 2.73 71.55 M121.58 169.56 C79.97 134.3, 40.32 97.68, 3.09 66.56 M121.58 169.56 C85.05 138.57, 47.31 105.13, 3.09 66.56 M121.18 163.92 C93.61 141.24, 70.29 120.31, 2.69 60.92 M121.18 163.92 C81 130.18, 42.06 94.4, 2.69 60.92 M121.54 158.93 C81.21 124.18, 39.74 89.83, 3.05 55.93 M121.54 158.93 C81.88 124.3, 41.68 88.97, 3.05 55.93 M121.15 153.29 C90.41 125.9, 53.73 97.18, 2.66 50.29 M121.15 153.29 C80.76 120.13, 41.85 84.95, 2.66 50.29 M121.51 148.3 C87.12 116.55, 53.45 85.41, 3.02 45.3 M121.51 148.3 C92.28 122.59, 61.41 97.6, 3.02 45.3 M121.87 143.32 C80.93 109.16, 39.39 70.89, 2.62 39.66 M121.87 143.32 C77.1 105.79, 34.44 66.67, 2.62 39.66 M121.47 137.67 C86.73 108.52, 54.3 77.18, 2.98 34.67 M121.47 137.67 C81.56 102.44, 39.45 67.04, 2.98 34.67 M121.83 132.69 C89.34 106.75, 57.35 78.02, 3.34 29.69 M121.83 132.69 C92.09 105.58, 59.77 78.34, 3.34 29.69 M121.44 127.04 C75.33 87.15, 32.81 48.39, 0.69 22.07 M121.44 127.04 C84.81 93.47, 46.18 61.88, 0.69 22.07 M121.8 122.06 C83.51 87.81, 42.49 53.91, 2.56 18.4 M121.8 122.06 C74.18 79.51, 26.25 38.74, 2.56 18.4 M121.4 116.41 C93.27 94.34, 67.86 72.38, 3.67 14.07 M121.4 116.41 C97.63 95.48, 73.18 75.43, 3.67 14.07 M121.77 111.43 C96 88.65, 66.45 62.93, 5.54 10.39 M121.77 111.43 C93.88 87.39, 65.03 63.59, 5.54 10.39 M121.37 105.78 C91.06 80.32, 61.56 53.94, 8.16 7.38 M121.37 105.78 C88.13 77.08, 54.75 47.1, 8.16 7.38 M121.73 100.8 C87.52 68.02, 50.82 36.97, 10.79 4.36 M121.73 100.8 C91.87 75.33, 63.83 49.85, 10.79 4.36 M121.34 95.15 C83.17 63.81, 46.24 29.54, 14.17 1.99 M121.34 95.15 C100.1 77.33, 78.9 57.5, 14.17 1.99 M121.7 90.17 C100.84 72.53, 78.04 53.88, 18.3 0.29 M121.7 90.17 C79.96 55.04, 40.52 19.87, 18.3 0.29 M122.06 85.18 C96.25 61.32, 67.15 35.67, 23.19 -0.76 M122.06 85.18 C83.29 51.56, 46.31 19.38, 23.19 -0.76 M121.66 79.54 C94.64 58.75, 69.69 33.94, 30.34 0.15 M121.66 79.54 C86.7 49.16, 50.37 17.76, 30.34 0.15 M122.02 74.55 C97.88 53.92, 69.3 32.26, 35.98 -0.24 M122.02 74.55 C103.12 57.96, 83.75 41.24, 35.98 -0.24 M121.63 68.91 C101.86 51.47, 79.36 31.85, 42.38 0.02 M121.63 68.91 C102.63 51.25, 82.57 34.42, 42.38 0.02 M121.99 63.92 C97.02 42.46, 67.98 18.31, 48.78 0.28 M121.99 63.92 C98.3 42.29, 74.5 21.37, 48.78 0.28 M121.59 58.28 C103.32 43.43, 90.07 31, 54.42 -0.11 M121.59 58.28 C97.01 35.45, 70.66 13.04, 54.42 -0.11 M121.95 53.29 C101.41 36.69, 84.15 21.23, 60.82 0.15 M121.95 53.29 C104.24 39.8, 86.98 24.32, 60.82 0.15 M121.56 47.65 C102.07 29.74, 83.41 15.57, 67.22 0.41 M121.56 47.65 C106.3 34.84, 90.91 21.21, 67.22 0.41 M121.92 42.66 C106.44 31.34, 94.28 18.65, 72.86 0.02 M121.92 42.66 C109.67 30.49, 96.05 20.35, 72.86 0.02 M121.52 37.02 C105.72 22.74, 87.82 7.91, 79.26 0.28 M121.52 37.02 C113.9 29.43, 104.95 20.51, 79.26 0.28 M121.88 32.03 C111.71 21.27, 101.46 14.93, 85.66 0.54 M121.88 32.03 C113.34 24.29, 105.24 18.8, 85.66 0.54 M122.24 27.04 C109.5 18.76, 100.27 7.97, 91.3 0.14 M122.24 27.04 C112.42 18.79, 100.56 7.77, 91.3 0.14 M121.85 21.4 C114.11 16.93, 111.61 9.51, 97.7 0.41 M121.85 21.4 C114.73 14.96, 106.75 9.01, 97.7 0.41 M119.95 14.44 C115.77 11.26, 111.4 5.03, 107.12 3.29 M119.95 14.44 C117.21 12.27, 114.62 10.21, 107.12 3.29" stroke="#a5d8ff" stroke-width="0.5" fill="none"></path><path d="M30 0 M30 0 C46.9 1.91, 69.07 0.43, 90 0 M30 0 C42.63 -0.94, 55.68 0.34, 90 0 M90 0 C110.16 -1.53, 119.51 10.99, 120 30 M90 0 C107.77 -2.28, 121.98 9.91, 120 30 M120 30 C122.67 86.66, 120.62 144.03, 120 191 M120 30 C120.07 92.9, 119.48 156.74, 120 191 M120 191 C120.45 211.9, 109.74 222.77, 90 221 M120 191 C121.45 212.04, 109.72 221.2, 90 221 M90 221 C72.49 222.23, 57.63 218.96, 30 221 M90 221 C75.72 221.12, 62.08 220.56, 30 221 M30 221 C9.1 219.81, 0.46 209.6, 0 191 M30 221 C8.99 220.04, 1.87 213.25, 0 191 M0 191 C2.31 151.89, -0.78 112.55, 0 30 M0 191 C1 135.3, 0.56 79.35, 0 30 M0 30 C-1.81 10.05, 9.7 -1, 30 0 M0 30 C-0.09 8.5, 7.84 -2.09, 30 0" stroke="#1e1e1e" stroke-width="1" fill="none"></path></g><g stroke-linecap="round" transform="translate(457.3000030517578 307) rotate(0 141.5 38.5)"><path d="M5.12 4.45 C5.12 4.45, 5.12 4.45, 5.12 4.45 M5.12 4.45 C5.12 4.45, 5.12 4.45, 5.12 4.45 M0.93 15.38 C5.55 10.69, 8.02 4.03, 12.08 2.55 M0.93 15.38 C5.14 12.05, 8.57 6.91, 12.08 2.55 M0.66 21.78 C9.09 14.47, 13.96 6.46, 19.69 -0.11 M0.66 21.78 C7.07 13.97, 14.61 6.03, 19.69 -0.11 M1.06 27.42 C8.94 17.39, 17.85 6.25, 24.68 0.25 M1.06 27.42 C9.23 17.36, 18.4 9.01, 24.68 0.25 M0.8 33.82 C11.93 20.03, 23.44 10.39, 30.32 -0.14 M0.8 33.82 C12.45 20.75, 23.62 7.08, 30.32 -0.14 M1.19 39.46 C13.24 23.49, 26.68 9.89, 35.31 0.22 M1.19 39.46 C12.55 27.63, 23.23 14.32, 35.31 0.22 M0.93 45.86 C9.79 33.65, 24.62 20.42, 40.95 -0.18 M0.93 45.86 C11.92 32.12, 23.39 19.67, 40.95 -0.18 M0.67 52.26 C17.69 31.25, 34.46 12.88, 45.94 0.18 M0.67 52.26 C10.58 40.65, 19.32 30.94, 45.94 0.18 M1.06 57.9 C16.29 39.08, 32.15 19.58, 50.92 0.54 M1.06 57.9 C13.88 42.95, 25.41 27.93, 50.92 0.54 M1.46 63.54 C19.24 43.34, 35.73 23.53, 56.57 0.15 M1.46 63.54 C21.39 40, 43.95 15.86, 56.57 0.15 M3.17 67.68 C16.29 52.78, 28.01 39.05, 61.55 0.51 M3.17 67.68 C15.93 52.98, 31.08 37.12, 61.55 0.51 M5.53 71.06 C22.1 52.67, 40.48 33.57, 67.2 0.11 M5.53 71.06 C19.31 54.87, 32.66 38.99, 67.2 0.11 M7.89 74.44 C32.05 42.56, 60.79 14.33, 72.18 0.47 M7.89 74.44 C25.88 53.43, 44.43 32.88, 72.18 0.47 M11.57 76.3 C33.72 51.03, 59.66 24.07, 77.83 0.08 M11.57 76.3 C29.17 54.96, 47.31 35.64, 77.83 0.08 M15.9 77.42 C37.74 51.07, 61.19 26.14, 82.81 0.44 M15.9 77.42 C28.49 61.77, 43.31 46.32, 82.81 0.44 M20.88 77.78 C35.23 63.85, 47.69 44.41, 88.46 0.04 M20.88 77.78 C38.39 56.43, 55.25 35.3, 88.46 0.04 M25.87 78.14 C41.24 61.65, 57.75 44.97, 93.44 0.4 M25.87 78.14 C49.28 49.8, 73.14 23.24, 93.44 0.4 M30.86 78.5 C57.49 48.18, 83.59 19.66, 99.09 0.01 M30.86 78.5 C53.99 52.43, 75.58 25.03, 99.09 0.01 M36.5 78.11 C57.96 52.08, 81.86 27.79, 104.08 0.37 M36.5 78.11 C50.57 60.23, 66.48 44.12, 104.08 0.37 M41.49 78.47 C70.28 48.27, 95.29 14.5, 109.72 -0.02 M41.49 78.47 C54.76 62.67, 68.58 46.81, 109.72 -0.02 M47.13 78.07 C62.13 60.37, 77.37 40.93, 114.71 0.34 M47.13 78.07 C61.59 61.95, 77 44.43, 114.71 0.34 M52.12 78.43 C70.22 56.71, 89.59 36.96, 120.35 -0.06 M52.12 78.43 C77.96 48.44, 102.11 19.48, 120.35 -0.06 M57.76 78.04 C82.24 51.87, 101.73 26.32, 125.34 0.3 M57.76 78.04 C79.79 51.78, 103.2 27.19, 125.34 0.3 M62.75 78.4 C86.79 48.57, 115.33 20.4, 130.98 -0.09 M62.75 78.4 C87.53 50.85, 111.47 24.81, 130.98 -0.09 M68.39 78 C83.22 59.85, 97.39 46, 135.97 0.27 M68.39 78 C84.42 58.41, 100.85 40.93, 135.97 0.27 M73.38 78.36 C87.2 60.17, 103.71 44.2, 141.61 -0.13 M73.38 78.36 C100.51 46.67, 127.98 15.77, 141.61 -0.13 M79.02 77.97 C95.85 60.15, 108.15 44.59, 146.6 0.23 M79.02 77.97 C92.21 63.33, 107.55 46.72, 146.6 0.23 M84.01 78.33 C102.35 58.67, 119.9 38.19, 152.24 -0.16 M84.01 78.33 C98.85 60.92, 114.11 43.02, 152.24 -0.16 M89.65 77.93 C109.47 54.76, 132.02 29.9, 157.23 0.2 M89.65 77.93 C115.66 48.29, 141.62 17.98, 157.23 0.2 M94.64 78.29 C113.8 55.32, 130.02 37.33, 162.87 -0.2 M94.64 78.29 C110.9 58.35, 129.65 38.55, 162.87 -0.2 M100.28 77.9 C118.16 59.29, 131.66 41.15, 167.86 0.16 M100.28 77.9 C123.21 51.81, 146.58 25.92, 167.86 0.16 M105.27 78.26 C130.34 47.59, 156.49 21.77, 172.84 0.52 M105.27 78.26 C131.68 48.18, 157.04 18.54, 172.84 0.52 M110.91 77.86 C130.12 55.16, 151.05 30.71, 178.49 0.13 M110.91 77.86 C130.03 55.84, 149.7 33.12, 178.49 0.13 M115.9 78.22 C127.49 63.06, 141.24 46.19, 183.47 0.49 M115.9 78.22 C130.79 61.59, 144.86 46.17, 183.47 0.49 M121.54 77.83 C137.7 59.08, 155.23 43.07, 189.12 0.09 M121.54 77.83 C138.25 57.34, 157.5 37.03, 189.12 0.09 M126.53 78.19 C151.27 49.47, 177.77 18.36, 194.1 0.45 M126.53 78.19 C154.02 47.7, 180.04 17.89, 194.1 0.45 M132.17 77.79 C152.92 53.61, 172.12 31.92, 199.75 0.06 M132.17 77.79 C157.28 50.01, 182.28 20.45, 199.75 0.06 M137.16 78.15 C164.69 49.12, 188.51 20.04, 204.73 0.42 M137.16 78.15 C161.47 51.92, 183.32 25.76, 204.73 0.42 M142.15 78.52 C155.45 61.25, 170.29 47.58, 210.38 0.03 M142.15 78.52 C162.89 55.26, 183.6 31.1, 210.38 0.03 M147.79 78.12 C167.67 54.86, 191.36 30.97, 215.36 0.39 M147.79 78.12 C167.74 55.93, 185.11 34.38, 215.36 0.39 M152.78 78.48 C177.4 47.45, 203.21 19.43, 221.01 -0.01 M152.78 78.48 C170.7 56.56, 189.87 34.94, 221.01 -0.01 M158.42 78.09 C182.69 53.05, 203.58 26.74, 225.99 0.35 M158.42 78.09 C185.12 48.6, 209.9 19.8, 225.99 0.35 M163.41 78.45 C186.9 54.36, 206.23 25.51, 231.64 -0.04 M163.41 78.45 C180.24 58.7, 198.22 38.41, 231.64 -0.04 M169.05 78.05 C182.46 61.02, 199.7 43.06, 236.62 0.32 M169.05 78.05 C186.88 58.51, 203.79 38.85, 236.62 0.32 M174.04 78.41 C187.79 61.39, 203.41 40.54, 242.27 -0.08 M174.04 78.41 C195.44 54.51, 218.58 28.79, 242.27 -0.08 M179.68 78.02 C206.77 48.27, 234.69 15.53, 247.25 0.28 M179.68 78.02 C198.09 57.93, 215.04 38.12, 247.25 0.28 M184.67 78.38 C210.18 51.14, 234.57 20.67, 252.9 -0.11 M184.67 78.38 C205.29 54.71, 228.02 29.29, 252.9 -0.11 M190.31 77.98 C209.11 52.62, 231.66 31.88, 257.88 0.25 M190.31 77.98 C214.72 49.35, 241.01 19.99, 257.88 0.25 M195.3 78.34 C213.67 55.28, 234.66 32.18, 263.53 -0.15 M195.3 78.34 C223.56 47.65, 248.61 17.57, 263.53 -0.15 M200.94 77.95 C218.21 59.67, 231.41 44.29, 266.55 2.48 M200.94 77.95 C223.82 52.09, 248.26 26.21, 266.55 2.48 M205.93 78.31 C223.87 59.29, 238.76 42.65, 272.84 1.33 M205.93 78.31 C223.93 56.98, 244.43 34.77, 272.84 1.33 M211.57 77.91 C230.8 53.57, 252.06 32.16, 275.86 3.95 M211.57 77.91 C234.02 52.9, 254.79 29.44, 275.86 3.95 M216.56 78.27 C237.73 53.99, 263.23 27.76, 279.54 5.82 M216.56 78.27 C231.85 62.59, 245.49 45.06, 279.54 5.82 M222.2 77.88 C242.27 56.49, 258.82 35.92, 281.24 9.96 M222.2 77.88 C236.01 62, 249.72 45.65, 281.24 9.96 M227.19 78.24 C240.06 60.33, 255.35 43.71, 282.95 14.09 M227.19 78.24 C240.92 64.53, 253.73 49.15, 282.95 14.09 M232.83 77.84 C245.96 66.22, 257.6 50.49, 285.31 17.47 M232.83 77.84 C244.73 64.7, 254.21 51.53, 285.31 17.47 M237.82 78.2 C250.77 65.27, 260.24 50.78, 285.71 23.11 M237.82 78.2 C256.32 56.84, 275 34.89, 285.71 23.11 M243.46 77.81 C256.64 65.23, 267.6 53.66, 285.45 29.51 M243.46 77.81 C256.76 61.95, 271.03 44.72, 285.45 29.51 M248.45 78.17 C260.81 65, 271.22 49.15, 285.84 35.15 M248.45 78.17 C255.82 68.52, 265.27 59.91, 285.84 35.15 M254.09 77.78 C264.5 66.68, 276.63 52.06, 285.58 41.55 M254.09 77.78 C265.17 64.81, 275.64 52.89, 285.58 41.55 M259.08 78.14 C269.52 68.45, 277.4 56.36, 285.98 47.19 M259.08 78.14 C267.51 70.37, 272.98 61.69, 285.98 47.19 M264.72 77.74 C269.91 71.11, 276.78 60.44, 285.71 53.59 M264.72 77.74 C271.04 70.67, 277.78 63.13, 285.71 53.59 M271.02 76.59 C276.41 71.45, 278.65 69.69, 285.45 59.99 M271.02 76.59 C275.93 71.35, 280.52 64.28, 285.45 59.99 M4.82 72.19 C4.82 72.19, 4.82 72.19, 4.82 72.19 M4.82 72.19 C4.82 72.19, 4.82 72.19, 4.82 72.19 M12.73 73.77 C9.97 69.77, 3.8 66.34, 0.65 63.27 M12.73 73.77 C9.55 71.57, 6.51 68.56, 0.65 63.27 M20.63 75.34 C17.29 70.06, 10.04 65.48, 2.52 59.59 M20.63 75.34 C13.02 68.96, 7.5 63.25, 2.52 59.59 M27.03 75.6 C20.48 68.01, 11.32 64.03, 2.88 54.61 M27.03 75.6 C19.48 68.63, 10.56 61.76, 2.88 54.61 M32.67 75.21 C20.78 63.5, 6.99 53.31, 2.49 48.96 M32.67 75.21 C25.05 69.64, 18.75 64.23, 2.49 48.96 M39.07 75.47 C33.31 69.3, 24.95 64.45, 2.85 43.98 M39.07 75.47 C31.34 68.54, 21.65 60.09, 2.85 43.98 M44.72 75.07 C34.86 66.48, 22.66 58.41, 2.45 38.33 M44.72 75.07 C33.41 65.5, 22.42 55.58, 2.45 38.33 M51.11 75.34 C37.9 63.46, 23.7 49.19, 2.81 33.35 M51.11 75.34 C36.34 61, 20.28 47.46, 2.81 33.35 M57.51 75.6 C41.2 63.11, 28.14 49.55, 2.42 27.7 M57.51 75.6 C37.89 59.48, 18.9 41.89, 2.42 27.7 M63.15 75.2 C50.76 66.1, 39.74 53.72, 2.78 22.72 M63.15 75.2 C50.98 64.86, 37.82 54, 2.78 22.72 M69.55 75.46 C41.22 52.99, 17.66 30.73, 2.38 17.07 M69.55 75.46 C51.72 59.34, 32.18 42.18, 2.38 17.07 M75.19 75.07 C45.83 50.05, 19.64 27.21, 2.74 12.09 M75.19 75.07 C53.82 58.12, 33.57 38.96, 2.74 12.09 M81.59 75.33 C52.49 49.86, 20.63 22.52, 4.61 8.41 M81.59 75.33 C59.5 56.43, 35.17 36.87, 4.61 8.41 M87.99 75.59 C70.12 59.73, 50.67 43.07, 5.73 4.08 M87.99 75.59 C66.74 56.47, 43.8 36.5, 5.73 4.08 M93.63 75.2 C74.26 55.56, 52.31 37.68, 9.11 1.72 M93.63 75.2 C63.69 49.4, 31.51 21.97, 9.11 1.72 M100.03 75.46 C72.04 49.25, 43.73 24.19, 12.48 -0.64 M100.03 75.46 C77.71 56.75, 58.22 39.36, 12.48 -0.64 M105.67 75.06 C74.67 45.55, 40.24 16.63, 19.64 0.27 M105.67 75.06 C77.96 51.64, 51.85 28.71, 19.64 0.27 M112.07 75.33 C86.7 56.62, 62.11 34.29, 25.28 -0.12 M112.07 75.33 C81.56 47.95, 51.08 22.48, 25.28 -0.12 M118.47 75.59 C93.91 55.02, 69.14 32.98, 31.68 0.14 M118.47 75.59 C92.92 54.66, 68.77 32.61, 31.68 0.14 M124.11 75.19 C102.56 53.51, 78.31 35.83, 37.32 -0.25 M124.11 75.19 C91.35 45.65, 57.12 16.26, 37.32 -0.25 M130.51 75.45 C114.8 59.85, 96.42 41.59, 43.72 0.01 M130.51 75.45 C105.34 52.86, 80.52 32.58, 43.72 0.01 M136.15 75.06 C116.07 56.95, 96.93 43.4, 50.12 0.27 M136.15 75.06 C102.66 47.55, 71.26 18.88, 50.12 0.27 M142.55 75.32 C114.33 51.53, 82 22.01, 55.76 -0.13 M142.55 75.32 C120.66 57.72, 101.67 38.59, 55.76 -0.13 M148.95 75.58 C123.37 52.26, 95.81 30.3, 62.16 0.14 M148.95 75.58 C117 48.33, 84.51 18.65, 62.16 0.14 M154.59 75.19 C134.7 59.11, 115.58 42.95, 67.8 -0.26 M154.59 75.19 C126.49 52.03, 100.95 27.63, 67.8 -0.26 M160.99 75.45 C141.03 58.78, 121.55 44.7, 74.2 0 M160.99 75.45 C135.34 51.04, 107.13 29.64, 74.2 0 M166.63 75.05 C139.09 55.08, 114.15 30.89, 80.6 0.26 M166.63 75.05 C147.35 58.44, 126.69 40.95, 80.6 0.26 M173.03 75.32 C145.3 53.74, 119.51 29.14, 86.24 -0.13 M173.03 75.32 C148.91 53.02, 122.63 32.42, 86.24 -0.13 M179.43 75.58 C149.13 48.75, 116.59 19.68, 92.64 0.13 M179.43 75.58 C151.32 50.98, 123.11 25.88, 92.64 0.13 M185.07 75.18 C160.95 55.54, 140.43 38.55, 98.28 -0.26 M185.07 75.18 C157.98 50.34, 129.95 26.43, 98.28 -0.26 M191.47 75.44 C160.72 50.43, 132.89 23.87, 104.68 0 M191.47 75.44 C165.34 51.67, 140.18 29.97, 104.68 0 M197.11 75.05 C164.09 49.06, 134.44 19.6, 111.08 0.26 M197.11 75.05 C179.34 59.45, 159.54 43.05, 111.08 0.26 M203.51 75.31 C176.86 52.74, 150.15 30.52, 116.72 -0.14 M203.51 75.31 C180.76 55.76, 156.02 33.81, 116.72 -0.14 M209.91 75.57 C186.08 55.35, 162.45 33.3, 123.12 0.13 M209.91 75.57 C188.32 58.01, 167.77 40.88, 123.12 0.13 M215.55 75.18 C191.53 56.8, 171.53 36.95, 128.76 -0.27 M215.55 75.18 C188.37 50.59, 160.11 28.31, 128.76 -0.27 M221.95 75.44 C196.72 56.1, 173.28 31.74, 135.16 -0.01 M221.95 75.44 C198.17 54.14, 174.1 34.36, 135.16 -0.01 M227.59 75.05 C198.68 50.21, 167.33 22.22, 141.56 0.25 M227.59 75.05 C198.14 50.33, 169.87 25.08, 141.56 0.25 M233.99 75.31 C202.89 47.12, 165.64 17.06, 147.2 -0.14 M233.99 75.31 C209.9 54.64, 183.85 32.81, 147.2 -0.14 M240.39 75.57 C223.72 58.29, 201.84 41.92, 153.6 0.12 M240.39 75.57 C207.44 46.42, 175.48 19.14, 153.6 0.12 M246.03 75.17 C221.81 56.94, 199.46 36.89, 159.24 -0.27 M246.03 75.17 C226.46 58.97, 207.88 42.69, 159.24 -0.27 M252.43 75.43 C226.98 50.21, 198.66 26.59, 165.64 -0.01 M252.43 75.43 C224.29 52.28, 197.84 28.42, 165.64 -0.01 M258.83 75.7 C233.09 51.33, 208.2 29.53, 172.03 0.25 M258.83 75.7 C229.29 51.93, 202.98 27.47, 172.03 0.25 M265.22 75.96 C231.62 47.91, 199.83 21.29, 177.68 -0.15 M265.22 75.96 C230.77 47.47, 197.6 17.8, 177.68 -0.15 M269.36 74.25 C244.7 51.18, 218.05 28.39, 184.08 0.12 M269.36 74.25 C251.03 57.55, 231 39.74, 184.08 0.12 M275.76 74.51 C254.04 54.75, 233.1 36.77, 189.72 -0.28 M275.76 74.51 C255.62 57.8, 234.9 39.62, 189.72 -0.28 M277.63 70.84 C257.89 54.43, 235.23 34.22, 196.12 -0.02 M277.63 70.84 C258.28 54.3, 238.33 38, 196.12 -0.02 M280.25 67.82 C249.87 40.32, 219.37 15.39, 202.51 0.24 M280.25 67.82 C259.02 48.48, 235.82 29.48, 202.51 0.24 M282.87 64.8 C255.31 41.52, 231.47 18.83, 208.16 -0.15 M282.87 64.8 C262.52 46.66, 240.77 27.52, 208.16 -0.15 M283.99 60.47 C259.86 38, 232.5 16.58, 214.56 0.11 M283.99 60.47 C258.13 38.88, 232.75 15.37, 214.56 0.11 M284.35 55.48 C263.6 39.24, 242.33 21.52, 220.2 -0.28 M284.35 55.48 C262.77 36.04, 240.9 17.7, 220.2 -0.28 M284.71 50.49 C273.76 39.54, 261.72 31.89, 226.6 -0.02 M284.71 50.49 C268.74 37.85, 255.01 23.82, 226.6 -0.02 M284.31 44.85 C268.68 29.99, 251.23 16.13, 232.99 0.24 M284.31 44.85 C273.01 34.24, 263.15 24.88, 232.99 0.24 M284.67 39.86 C264.67 26.46, 248.57 7.94, 238.64 -0.15 M284.67 39.86 C266.89 23.57, 251.03 9.99, 238.64 -0.15 M284.28 34.22 C271.86 25, 261.6 13.75, 245.03 0.11 M284.28 34.22 C269.39 21.96, 256.32 10.52, 245.03 0.11 M284.64 29.23 C277.36 20.11, 265.57 12.58, 250.68 -0.29 M284.64 29.23 C274.44 20.81, 265.19 12.27, 250.68 -0.29 M284.25 23.59 C273.65 14.46, 265.32 4.92, 257.08 -0.03 M284.25 23.59 C277.48 17.63, 268.83 12.18, 257.08 -0.03 M284.61 18.6 C279.82 11.08, 269.99 5.98, 263.47 0.23 M284.61 18.6 C276.07 11.78, 270.01 5.92, 263.47 0.23 M284.21 12.96 C281.58 8.69, 277.34 8.65, 266.1 -2.78 M284.21 12.96 C278.97 9.58, 275.33 3.81, 266.1 -2.78" stroke="#b2f2bb" stroke-width="0.5" fill="none"></path><path d="M19.25 0 M19.25 0 C111.58 -0.36, 205.58 -2.2, 263.75 0 M19.25 0 C108.57 -0.9, 198.15 -1.31, 263.75 0 M263.75 0 C277.11 0.23, 284.97 7.56, 283 19.25 M263.75 0 C276.89 -1.25, 281.25 6.68, 283 19.25 M283 19.25 C281.64 34.5, 282.03 47.33, 283 57.75 M283 19.25 C283.07 31.1, 282.46 43.23, 283 57.75 M283 57.75 C282.73 69.5, 276.48 78.37, 263.75 77 M283 57.75 C285.01 71.8, 278.56 75.22, 263.75 77 M263.75 77 C209.97 74.77, 156.98 75.02, 19.25 77 M263.75 77 C181.83 79.75, 100.8 78.68, 19.25 77 M19.25 77 C5.03 75.29, 0.94 71.37, 0 57.75 M19.25 77 C7.75 78.43, 1.32 69.27, 0 57.75 M0 57.75 C-1.02 47.48, -0.18 36.77, 0 19.25 M0 57.75 C0.97 43.04, -0.33 29.99, 0 19.25 M0 19.25 C-1.16 6.06, 7.72 -1.94, 19.25 0 M0 19.25 C-0.09 6.2, 6.51 2.04, 19.25 0" stroke="#1e1e1e" stroke-width="1" fill="none"></path></g><g stroke-linecap="round"><g transform="translate(561.3000030517578 304) rotate(0 173.969176689859 -106.83579874089963)"><path d="M1.64 0.02 C1.12 -53.01, 0.17 -106.24, -0.6 -213.69 M-0.59 -0.14 C-1.58 -49.19, -2.1 -98.24, -2.47 -211.82 M-1.38 -210.9 C76.07 -210.82, 152.12 -211.34, 350.06 -211.71 M-1.81 -212.45 C103.43 -210.65, 207.93 -211.19, 350.41 -210.95" stroke="#2f9e44" stroke-width="1" fill="none"></path></g><g transform="translate(561.3000030517578 304) rotate(0 173.969176689859 -106.83579874089963)"><path d="M324.07 -200.69 C329.26 -204.09, 335.69 -207.64, 351.99 -212.87 M321.54 -200.87 C328.96 -202.91, 335.48 -204.84, 349.87 -210.75" stroke="#2f9e44" stroke-width="1" fill="none"></path></g><g transform="translate(561.3000030517578 304) rotate(0 173.969176689859 -106.83579874089963)"><path d="M324.09 -221.21 C329.09 -219.54, 335.52 -218.03, 351.99 -212.87 M321.56 -221.39 C329.12 -218.64, 335.63 -215.79, 349.87 -210.75" stroke="#2f9e44" stroke-width="1" fill="none"></path></g></g><mask></mask><g stroke-linecap="round"><g transform="translate(880.3000030517578 423) rotate(0 116.07170020973399 -66.419232136593)"><path d="M0.05 0.68 C66.03 2.14, 130.72 2.59, 231.5 2.29 M-0.36 -0.13 C50.09 -0.14, 99.47 0.48, 230.86 2.36 M229.72 3.43 C232.68 -41.26, 229.92 -87.84, 231.68 -136.41 M230.84 3.57 C232.9 -25.29, 232.69 -53.25, 232.09 -134.57" stroke="#1971c2" stroke-width="1" fill="none"></path></g><g transform="translate(880.3000030517578 423) rotate(0 116.07170020973399 -66.419232136593)"><path d="M242.58 -105.65 C240.79 -114.27, 237.66 -122.63, 232.68 -135.4 M242.11 -106.6 C240.45 -112.25, 237.82 -118.33, 231.93 -135.32" stroke="#1971c2" stroke-width="1" fill="none"></path></g><g transform="translate(880.3000030517578 423) rotate(0 116.07170020973399 -66.419232136593)"><path d="M222.06 -105.52 C226.03 -114.05, 228.66 -122.45, 232.68 -135.4 M221.59 -106.47 C224.34 -112.25, 226.13 -118.36, 231.93 -135.32" stroke="#1971c2" stroke-width="1" fill="none"></path></g></g><mask></mask><g stroke-linecap="round"><g transform="translate(399.4315870282338 500.97560623126844) rotate(0 -118.06640308133166 -112.04360019604135)"><path d="M0.7 -0.26 C-54.09 1.85, -106.42 0.95, -236.83 -1.14 M0.45 0.77 C-70.76 0.39, -140.46 1.59, -235.89 -0.25 M-236.11 -0.82 C-234.39 -72, -236.61 -143.83, -236.82 -223.11 M-234.83 -0.76 C-235.49 -59.25, -235.23 -116.59, -236.7 -225.03" stroke="#1e1e1e" stroke-width="1" fill="none"></path></g><g transform="translate(399.4315870282338 500.97560623126844) rotate(0 -118.06640308133166 -112.04360019604135)"><path d="M-225.31 -197.26 C-230.03 -202.36, -231.74 -209.73, -238.35 -226.39 M-225.6 -196.03 C-229.71 -206.03, -232.14 -212.99, -237.24 -225.33" stroke="#1e1e1e" stroke-width="1" fill="none"></path></g><g transform="translate(399.4315870282338 500.97560623126844) rotate(0 -118.06640308133166 -112.04360019604135)"><path d="M-245.83 -197.04 C-245.94 -202.31, -243.04 -209.73, -238.35 -226.39 M-246.12 -195.81 C-244.1 -205.98, -240.41 -213.01, -237.24 -225.33" stroke="#1e1e1e" stroke-width="1" fill="none"></path></g></g><mask></mask><g stroke-linecap="round"><g transform="translate(182.49584783313827 277.97720558983576) rotate(0 106.69469994575084 100.80350679122824)"><path d="M-1.09 -0.81 C0.28 49.97, 0.55 101.52, -2.07 195.06 M0.02 0.07 C1.87 70.46, 1.54 140.94, -0.45 196.36 M-1.68 197.56 C84.21 201.55, 169.41 202.47, 214.82 201.84 M-0.6 197.31 C77.17 197.76, 156.26 199.9, 215.46 202.41" stroke="#1e1e1e" stroke-width="1" fill="none"></path></g><g transform="translate(182.49584783313827 277.97720558983576) rotate(0 106.69469994575084 100.80350679122824)"><path d="M185.83 210.83 C195.69 207.64, 203.55 205.36, 213.89 200.73 M186.93 211.71 C197.28 208.2, 207.34 204.97, 215.51 202.03" stroke="#1e1e1e" stroke-width="1" fill="none"></path></g><g transform="translate(182.49584783313827 277.97720558983576) rotate(0 106.69469994575084 100.80350679122824)"><path d="M186.58 190.32 C196.16 192.49, 203.82 195.58, 213.89 200.73 M187.68 191.2 C197.95 195.04, 207.74 199.14, 215.51 202.03" stroke="#1e1e1e" stroke-width="1" fill="none"></path></g></g><mask></mask><g stroke-linecap="round"><g transform="translate(347.15714284808803 278.97965798943414) rotate(0 197.88261908645057 70.73023376545257)"><path d="M0.19 -1.56 C0.96 40.88, -1.08 79.11, 0.41 142.04 M-0.05 141.68 C115.54 139.88, 231.8 142.24, 395.92 143.02" stroke="#1e1e1e" stroke-width="1.5" fill="none" stroke-dasharray="8 9"></path></g><g transform="translate(347.15714284808803 278.97965798943414) rotate(0 197.88261908645057 70.73023376545257)"><path d="M367.84 151.52 C377.48 151.18, 383.59 146.43, 396.73 143.95" stroke="#1e1e1e" stroke-width="1.5" fill="none"></path></g><g transform="translate(347.15714284808803 278.97965798943414) rotate(0 197.88261908645057 70.73023376545257)"><path d="M367.99 131 C377.49 136.49, 383.56 137.58, 396.73 143.95" stroke="#1e1e1e" stroke-width="1.5" fill="none"></path></g></g><mask></mask><g stroke-linecap="round"><g transform="translate(749.157142848088 435.97965798943414) rotate(0 -213.3196145788595 -78.34514680797861)"><path d="M-1.03 0.34 C-121.89 -1.24, -241.56 -0.02, -423.63 -0.67 M-425.13 0.45 C-423.26 -49.97, -424.69 -100.45, -425.61 -157.14" stroke="#1e1e1e" stroke-width="1.5" fill="none" stroke-dasharray="8 9"></path></g><g transform="translate(749.157142848088 435.97965798943414) rotate(0 -213.3196145788595 -78.34514680797861)"><path d="M-416.81 -128.49 C-419.78 -137.55, -420.49 -143.3, -426.05 -158.62" stroke="#1e1e1e" stroke-width="1.5" fill="none"></path></g><g transform="translate(749.157142848088 435.97965798943414) rotate(0 -213.3196145788595 -78.34514680797861)"><path d="M-437.33 -128.13 C-434.44 -137.2, -429.29 -143.05, -426.05 -158.62" stroke="#1e1e1e" stroke-width="1.5" fill="none"></path></g></g><mask></mask><g stroke-linecap="round"><g transform="translate(1155.3314601999032 290) rotate(0 -147.45289130387914 76.65357765622167)"><path d="M-22.7 0.49 C-22.59 55.84, -21.55 110.96, -19.42 149.94 M-22.04 0.21 C-21.58 48.19, -22.71 99.03, -20.73 150.3 M-19.22 151.49 C-76.4 150.46, -128.51 149.72, -274.83 152.11 M-20.64 151.27 C-87.05 152.39, -156.02 153.53, -275.69 152.93" stroke="#1971c2" stroke-width="1" fill="none"></path></g><g transform="translate(1155.3314601999032 290) rotate(0 -147.45289130387914 76.65357765622167)"><path d="M-248.21 143.2 C-258.22 146.35, -268.32 149.2, -274.98 151.81 M-247.56 142.92 C-255.75 145.44, -266.63 150.55, -276.29 152.18" stroke="#1971c2" stroke-width="1" fill="none"></path></g><g transform="translate(1155.3314601999032 290) rotate(0 -147.45289130387914 76.65357765622167)"><path d="M-248.24 163.72 C-258.09 159.25, -268.18 154.49, -274.98 151.81 M-247.58 163.44 C-255.6 159.3, -266.48 157.75, -276.29 152.18" stroke="#1971c2" stroke-width="1" fill="none"></path></g></g><mask></mask><g stroke-linecap="round"><g transform="translate(911.7702664618737 114.8540918927232) rotate(0 -163.2636183233774 94.56874354439077)"><path d="M0.4 -1.25 C-93.75 -1.91, -190.82 0.75, -326.78 -0.12 M-0.42 0.42 C-104.6 -2.07, -208.07 -1.14, -326.86 0.93 M-324.31 -0.55 C-326.14 45.42, -322.91 87.6, -324.27 190.49 M-326.92 1.42 C-324.12 56.01, -324.32 110.54, -325.39 189.96" stroke="#2f9e44" stroke-width="1" fill="none"></path></g><g transform="translate(911.7702664618737 114.8540918927232) rotate(0 -163.2636183233774 94.56874354439077)"><path d="M-334.78 159.85 C-330.79 168.32, -330.9 180.09, -326.21 188.61 M-335.96 162.27 C-332.84 170.31, -328.5 180.32, -326.34 190.15" stroke="#2f9e44" stroke-width="1" fill="none"></path></g><g transform="translate(911.7702664618737 114.8540918927232) rotate(0 -163.2636183233774 94.56874354439077)"><path d="M-314.26 160.07 C-316.25 168.38, -322.33 180.08, -326.21 188.61 M-315.44 162.48 C-318.88 170.27, -321.09 180.21, -326.34 190.15" stroke="#2f9e44" stroke-width="1" fill="none"></path></g></g><mask></mask><g transform="translate(536.3000030517578 330) rotate(0 64.44166564941406 12)"><text x="0" y="0" font-family="Cascadia, Segoe UI Emoji" font-size="20px" fill="#2f9e44" text-anchor="start" style="white-space: pre;" direction="ltr" dominant-baseline="text-before-edge">HTTP Server</text></g><g transform="translate(762.3000030517578 393) rotate(0 52.724998474121094 24)"><text x="52.724998474121094" y="0" font-family="Cascadia, Segoe UI Emoji" font-size="20px" fill="#1971c2" text-anchor="middle" style="white-space: pre;" direction="ltr" dominant-baseline="text-before-edge">WebSocket</text><text x="52.724998474121094" y="24" font-family="Cascadia, Segoe UI Emoji" font-size="20px" fill="#1971c2" text-anchor="middle" style="white-space: pre;" direction="ltr" dominant-baseline="text-before-edge">Server</text></g><g transform="translate(461.4250030517578 468) rotate(0 87.875 12)"><text x="87.875" y="0" font-family="Cascadia, Segoe UI Emoji" font-size="20px" fill="#1e1e1e" text-anchor="middle" style="white-space: pre;" direction="ltr" dominant-baseline="text-before-edge">Language Server</text></g><g transform="translate(10 555) rotate(0 70.30000305175781 12)"><text x="70.30000305175781" y="0" font-family="Cascadia, Segoe UI Emoji" font-size="20px" fill="#1e1e1e" text-anchor="middle" style="white-space: pre;" direction="ltr" dominant-baseline="text-before-edge">LSP Protocol</text></g><g stroke-linecap="round"><g transform="translate(39.508804312392954 544) rotate(0 55.90180769567942 -36.96407668627802)"><path d="M0.29 0.81 C10.67 -5.16, 42.66 -22.47, 61.41 -34.77 C80.17 -47.06, 104.14 -66.37, 112.82 -72.95 M-1.02 0.19 C9.26 -5.64, 41.42 -24.28, 60.27 -36.77 C79.11 -49.26, 103.09 -68.66, 112.07 -74.74" stroke="#1e1e1e" stroke-width="1" fill="none"></path></g><g transform="translate(39.508804312392954 544) rotate(0 55.90180769567942 -36.96407668627802)"><path d="M96.8 -50.4 C99.37 -55.41, 104.49 -59.92, 111.66 -73.06 M94.54 -49.93 C99.72 -57.37, 105.09 -64.22, 112.04 -73.93" stroke="#1e1e1e" stroke-width="1" fill="none"></path></g><g transform="translate(39.508804312392954 544) rotate(0 55.90180769567942 -36.96407668627802)"><path d="M84.64 -66.93 C90.1 -68.23, 97.97 -69, 111.66 -73.06 M82.37 -66.46 C91.2 -69, 100.12 -71.03, 112.04 -73.93" stroke="#1e1e1e" stroke-width="1" fill="none"></path></g></g><mask></mask><g transform="translate(407.5750045776367 183) rotate(0 52.724998474121094 24)"><text x="52.724998474121094" y="0" font-family="Cascadia, Segoe UI Emoji" font-size="20px" fill="#1e1e1e" text-anchor="middle" style="white-space: pre;" direction="ltr" dominant-baseline="text-before-edge">"Preview"</text><text x="52.724998474121094" y="24" font-family="Cascadia, Segoe UI Emoji" font-size="20px" fill="#1e1e1e" text-anchor="middle" style="white-space: pre;" direction="ltr" dominant-baseline="text-before-edge"> Protocol</text></g><g stroke-linecap="round"><g transform="translate(408.3000030517578 244) rotate(0 -26.172764793699628 46.14996544442138)"><path d="M-0.12 -0.48 C-2.81 5.41, -6.6 19.31, -15.24 35.07 C-23.89 50.83, -45.82 84.45, -51.99 94.08 M-1.64 -1.78 C-4.51 4.26, -7.36 20.44, -15.79 36.12 C-24.22 51.8, -46.25 82.67, -52.23 92.3" stroke="#1e1e1e" stroke-width="1" fill="none"></path></g><g transform="translate(408.3000030517578 244) rotate(0 -26.172764793699628 46.14996544442138)"><path d="M-45.98 64.4 C-49.45 75.83, -48.77 86.39, -52.46 91.35 M-45.96 62.5 C-46.68 71.44, -48.68 79.03, -52.08 92.88" stroke="#1e1e1e" stroke-width="1" fill="none"></path></g><g transform="translate(408.3000030517578 244) rotate(0 -26.172764793699628 46.14996544442138)"><path d="M-28.89 75.76 C-38.79 82.88, -44.56 89.15, -52.46 91.35 M-28.87 73.85 C-34.29 79.78, -40.9 84.32, -52.08 92.88" stroke="#1e1e1e" stroke-width="1" fill="none"></path></g></g><mask></mask></svg>